<mxfile host="app.diagrams.net" agent="Mozilla/5.0 (Windows NT 10.0; Win64; x64) AppleWebKit/537.36 (KHTML, like Gecko) Chrome/129.0.0.0 Safari/537.36" version="24.7.16" pages="2">
  <diagram id="H8HjLuQ_fG-rRrFmZp9u" name="DEFINES">
    <mxGraphModel dx="1050" dy="557" grid="1" gridSize="10" guides="1" tooltips="1" connect="1" arrows="1" fold="1" page="1" pageScale="1" pageWidth="850" pageHeight="1100" math="0" shadow="0">
      <root>
        <mxCell id="0" />
        <mxCell id="1" parent="0" />
        <mxCell id="ObF0EdWx7iX7P7b3BZqy-1" value="" style="rounded=0;whiteSpace=wrap;html=1;" vertex="1" parent="1">
          <mxGeometry x="40" y="80" width="360" height="240" as="geometry" />
        </mxCell>
        <mxCell id="dUvVWF2XSrcSI-57hiGY-1" value="&lt;b&gt;&lt;font style=&quot;font-size: 22px;&quot;&gt;TITLE&lt;/font&gt;&lt;/b&gt;" style="rounded=0;whiteSpace=wrap;html=1;align=center;" vertex="1" parent="1">
          <mxGeometry x="80" y="180" width="280" height="40" as="geometry" />
        </mxCell>
        <mxCell id="dUvVWF2XSrcSI-57hiGY-2" value="" style="rounded=0;whiteSpace=wrap;html=1;align=left;" vertex="1" parent="1">
          <mxGeometry x="80" y="220" width="280" height="60" as="geometry" />
        </mxCell>
        <mxCell id="dUvVWF2XSrcSI-57hiGY-3" value="" style="group;align=left;" vertex="1" connectable="0" parent="1">
          <mxGeometry x="80" y="220" width="280" height="30" as="geometry" />
        </mxCell>
        <mxCell id="dUvVWF2XSrcSI-57hiGY-4" value="field_name" style="text;html=1;align=left;verticalAlign=middle;whiteSpace=wrap;rounded=0;labelBorderColor=none;" vertex="1" parent="dUvVWF2XSrcSI-57hiGY-3">
          <mxGeometry width="280" height="30" as="geometry" />
        </mxCell>
        <mxCell id="dUvVWF2XSrcSI-57hiGY-5" value="" style="endArrow=none;html=1;rounded=0;exitX=0;exitY=1;exitDx=0;exitDy=0;entryX=1;entryY=1;entryDx=0;entryDy=0;align=left;" edge="1" parent="dUvVWF2XSrcSI-57hiGY-3" source="dUvVWF2XSrcSI-57hiGY-4" target="dUvVWF2XSrcSI-57hiGY-4">
          <mxGeometry width="50" height="50" relative="1" as="geometry">
            <mxPoint x="-50" y="120" as="sourcePoint" />
            <mxPoint y="70" as="targetPoint" />
          </mxGeometry>
        </mxCell>
        <mxCell id="dUvVWF2XSrcSI-57hiGY-6" value="TYPE(NUMBER)" style="rounded=0;whiteSpace=wrap;html=1;align=left;" vertex="1" parent="dUvVWF2XSrcSI-57hiGY-3">
          <mxGeometry x="160" width="120" height="30" as="geometry" />
        </mxCell>
        <mxCell id="ObF0EdWx7iX7P7b3BZqy-2" value="&lt;h1 style=&quot;margin-top: 0px;&quot;&gt;TABLE&lt;/h1&gt;&lt;div&gt;Model block which indicates table structure&lt;/div&gt;" style="text;html=1;whiteSpace=wrap;overflow=hidden;rounded=0;" vertex="1" parent="1">
          <mxGeometry x="40" y="80" width="320" height="70" as="geometry" />
        </mxCell>
        <mxCell id="tk4HEtbLqHkYImKp3hAO-1" value="" style="rounded=0;whiteSpace=wrap;html=1;" vertex="1" parent="1">
          <mxGeometry x="440" y="80" width="360" height="800" as="geometry" />
        </mxCell>
        <mxCell id="tk4HEtbLqHkYImKp3hAO-8" value="&lt;h1 style=&quot;margin-top: 0px;&quot;&gt;RELATIONS&lt;/h1&gt;" style="text;html=1;whiteSpace=wrap;overflow=hidden;rounded=0;" vertex="1" parent="1">
          <mxGeometry x="440" y="80" width="320" height="70" as="geometry" />
        </mxCell>
        <mxCell id="tk4HEtbLqHkYImKp3hAO-11" value="" style="edgeStyle=entityRelationEdgeStyle;fontSize=12;html=1;endArrow=ERmandOne;startArrow=ERmandOne;rounded=0;" edge="1" parent="1">
          <mxGeometry width="100" height="100" relative="1" as="geometry">
            <mxPoint x="570" y="260" as="sourcePoint" />
            <mxPoint x="670" y="160" as="targetPoint" />
          </mxGeometry>
        </mxCell>
        <mxCell id="tk4HEtbLqHkYImKp3hAO-13" value="1 - 1" style="text;html=1;align=left;verticalAlign=middle;whiteSpace=wrap;rounded=0;" vertex="1" parent="1">
          <mxGeometry x="450" y="150" width="60" height="30" as="geometry" />
        </mxCell>
        <mxCell id="tk4HEtbLqHkYImKp3hAO-14" value="" style="edgeStyle=entityRelationEdgeStyle;fontSize=12;html=1;endArrow=ERmany;startArrow=ERmany;rounded=0;" edge="1" parent="1">
          <mxGeometry width="100" height="100" relative="1" as="geometry">
            <mxPoint x="570" y="430" as="sourcePoint" />
            <mxPoint x="670" y="330" as="targetPoint" />
          </mxGeometry>
        </mxCell>
        <mxCell id="tk4HEtbLqHkYImKp3hAO-15" value="many - many" style="text;html=1;align=left;verticalAlign=middle;whiteSpace=wrap;rounded=0;" vertex="1" parent="1">
          <mxGeometry x="450" y="320" width="80" height="30" as="geometry" />
        </mxCell>
        <mxCell id="tk4HEtbLqHkYImKp3hAO-16" value="" style="edgeStyle=entityRelationEdgeStyle;fontSize=12;html=1;endArrow=ERoneToMany;startArrow=ERmandOne;rounded=0;" edge="1" parent="1">
          <mxGeometry width="100" height="100" relative="1" as="geometry">
            <mxPoint x="570" y="610" as="sourcePoint" />
            <mxPoint x="670" y="510" as="targetPoint" />
          </mxGeometry>
        </mxCell>
        <mxCell id="tk4HEtbLqHkYImKp3hAO-17" value="1 - many" style="text;html=1;align=left;verticalAlign=middle;whiteSpace=wrap;rounded=0;" vertex="1" parent="1">
          <mxGeometry x="450" y="510" width="80" height="30" as="geometry" />
        </mxCell>
        <mxCell id="wDwP1dWMEs1hZ62L8az--1" value="" style="edgeStyle=entityRelationEdgeStyle;fontSize=12;html=1;endArrow=ERzeroToOne;startArrow=ERmandOne;rounded=0;" edge="1" parent="1">
          <mxGeometry width="100" height="100" relative="1" as="geometry">
            <mxPoint x="570" y="810" as="sourcePoint" />
            <mxPoint x="670" y="710" as="targetPoint" />
          </mxGeometry>
        </mxCell>
        <mxCell id="wDwP1dWMEs1hZ62L8az--2" value="1 - optional 1" style="text;html=1;align=left;verticalAlign=middle;whiteSpace=wrap;rounded=0;" vertex="1" parent="1">
          <mxGeometry x="450" y="700" width="80" height="30" as="geometry" />
        </mxCell>
      </root>
    </mxGraphModel>
  </diagram>
  <diagram name="MODELS" id="Yr3ADe0ZHvxz-2B6CXZz">
    <mxGraphModel dx="1900" dy="557" grid="1" gridSize="10" guides="1" tooltips="1" connect="1" arrows="1" fold="1" page="1" pageScale="1" pageWidth="850" pageHeight="1100" math="0" shadow="0">
      <root>
        <mxCell id="0" />
        <mxCell id="1" parent="0" />
        <mxCell id="VDlrK9HROH-bXT8Rcj3w-75" value="" style="edgeStyle=entityRelationEdgeStyle;fontSize=12;html=1;endArrow=ERoneToMany;startArrow=ERmandOne;rounded=0;exitX=1;exitY=0.75;exitDx=0;exitDy=0;entryX=0;entryY=0.5;entryDx=0;entryDy=0;" parent="1" source="DcZ_CSGGjANzheqNLnKH-26" target="VDlrK9HROH-bXT8Rcj3w-77" edge="1">
          <mxGeometry width="100" height="100" relative="1" as="geometry">
            <mxPoint x="1160" y="609" as="sourcePoint" />
            <mxPoint x="1680" y="691" as="targetPoint" />
          </mxGeometry>
        </mxCell>
        <mxCell id="VDlrK9HROH-bXT8Rcj3w-74" value="" style="edgeStyle=entityRelationEdgeStyle;fontSize=12;html=1;endArrow=ERoneToMany;startArrow=ERmandOne;rounded=0;exitX=1;exitY=0.75;exitDx=0;exitDy=0;entryX=0;entryY=0.5;entryDx=0;entryDy=0;" parent="1" source="pU_csxRjSMOdD0A7SyPA-6" target="VDlrK9HROH-bXT8Rcj3w-71" edge="1">
          <mxGeometry width="100" height="100" relative="1" as="geometry">
            <mxPoint x="1170" y="225" as="sourcePoint" />
            <mxPoint x="1290" y="225" as="targetPoint" />
          </mxGeometry>
        </mxCell>
        <mxCell id="lk23dLZlHlBoguHnwzzX-2" value="" style="edgeStyle=entityRelationEdgeStyle;fontSize=12;html=1;endArrow=ERoneToMany;startArrow=ERmandOne;rounded=0;exitX=1;exitY=0.5;exitDx=0;exitDy=0;entryX=0;entryY=0.5;entryDx=0;entryDy=0;" parent="1" target="DcZ_CSGGjANzheqNLnKH-78" edge="1">
          <mxGeometry width="100" height="100" relative="1" as="geometry">
            <mxPoint x="760" y="220" as="sourcePoint" />
            <mxPoint x="880" y="860" as="targetPoint" />
            <Array as="points">
              <mxPoint x="850" y="565" />
            </Array>
          </mxGeometry>
        </mxCell>
        <mxCell id="r7-0U3KU1S3eSfeqlKDV-6" value="&lt;b&gt;&lt;font style=&quot;font-size: 22px;&quot;&gt;ACCOUNT&lt;/font&gt;&lt;/b&gt;" style="rounded=0;whiteSpace=wrap;html=1;align=center;" parent="1" vertex="1">
          <mxGeometry x="80" y="160" width="280" height="40" as="geometry" />
        </mxCell>
        <mxCell id="r7-0U3KU1S3eSfeqlKDV-8" value="" style="rounded=0;whiteSpace=wrap;html=1;align=left;" parent="1" vertex="1">
          <mxGeometry x="80" y="200" width="280" height="130" as="geometry" />
        </mxCell>
        <mxCell id="r7-0U3KU1S3eSfeqlKDV-12" value="" style="group;align=left;" parent="1" vertex="1" connectable="0">
          <mxGeometry x="80" y="200" width="280" height="30" as="geometry" />
        </mxCell>
        <mxCell id="r7-0U3KU1S3eSfeqlKDV-9" value="username" style="text;html=1;align=left;verticalAlign=middle;whiteSpace=wrap;rounded=0;labelBorderColor=none;" parent="r7-0U3KU1S3eSfeqlKDV-12" vertex="1">
          <mxGeometry width="280" height="30" as="geometry" />
        </mxCell>
        <mxCell id="r7-0U3KU1S3eSfeqlKDV-10" value="" style="endArrow=none;html=1;rounded=0;exitX=0;exitY=1;exitDx=0;exitDy=0;entryX=1;entryY=1;entryDx=0;entryDy=0;align=left;" parent="r7-0U3KU1S3eSfeqlKDV-12" source="r7-0U3KU1S3eSfeqlKDV-9" target="r7-0U3KU1S3eSfeqlKDV-9" edge="1">
          <mxGeometry width="50" height="50" relative="1" as="geometry">
            <mxPoint x="-50" y="120" as="sourcePoint" />
            <mxPoint y="70" as="targetPoint" />
          </mxGeometry>
        </mxCell>
        <mxCell id="5MbfwUPGWR8fdKyCLbyf-27" value="VARCHAR(255)" style="rounded=0;whiteSpace=wrap;html=1;align=left;" parent="r7-0U3KU1S3eSfeqlKDV-12" vertex="1">
          <mxGeometry x="160" width="120" height="30" as="geometry" />
        </mxCell>
        <mxCell id="r7-0U3KU1S3eSfeqlKDV-21" value="" style="group;align=left;" parent="1" vertex="1" connectable="0">
          <mxGeometry x="80" y="230" width="280" height="30" as="geometry" />
        </mxCell>
        <mxCell id="r7-0U3KU1S3eSfeqlKDV-22" value="password" style="text;html=1;align=left;verticalAlign=middle;whiteSpace=wrap;rounded=0;labelBorderColor=none;" parent="r7-0U3KU1S3eSfeqlKDV-21" vertex="1">
          <mxGeometry width="280" height="30" as="geometry" />
        </mxCell>
        <mxCell id="r7-0U3KU1S3eSfeqlKDV-23" value="" style="endArrow=none;html=1;rounded=0;exitX=0;exitY=1;exitDx=0;exitDy=0;entryX=1;entryY=1;entryDx=0;entryDy=0;align=left;" parent="r7-0U3KU1S3eSfeqlKDV-21" source="r7-0U3KU1S3eSfeqlKDV-22" target="r7-0U3KU1S3eSfeqlKDV-22" edge="1">
          <mxGeometry width="50" height="50" relative="1" as="geometry">
            <mxPoint x="-50" y="120" as="sourcePoint" />
            <mxPoint y="70" as="targetPoint" />
          </mxGeometry>
        </mxCell>
        <mxCell id="5MbfwUPGWR8fdKyCLbyf-49" value="MD5" style="rounded=0;whiteSpace=wrap;html=1;align=left;" parent="r7-0U3KU1S3eSfeqlKDV-21" vertex="1">
          <mxGeometry x="160" width="120" height="30" as="geometry" />
        </mxCell>
        <mxCell id="r7-0U3KU1S3eSfeqlKDV-24" value="" style="group;align=left;" parent="1" vertex="1" connectable="0">
          <mxGeometry x="80" y="260" width="280" height="30" as="geometry" />
        </mxCell>
        <mxCell id="r7-0U3KU1S3eSfeqlKDV-25" value="is_admin" style="text;html=1;align=left;verticalAlign=middle;whiteSpace=wrap;rounded=0;labelBorderColor=none;" parent="r7-0U3KU1S3eSfeqlKDV-24" vertex="1">
          <mxGeometry width="280" height="30" as="geometry" />
        </mxCell>
        <mxCell id="r7-0U3KU1S3eSfeqlKDV-26" value="" style="endArrow=none;html=1;rounded=0;exitX=0;exitY=1;exitDx=0;exitDy=0;entryX=1;entryY=1;entryDx=0;entryDy=0;align=left;" parent="r7-0U3KU1S3eSfeqlKDV-24" source="r7-0U3KU1S3eSfeqlKDV-25" target="r7-0U3KU1S3eSfeqlKDV-25" edge="1">
          <mxGeometry width="50" height="50" relative="1" as="geometry">
            <mxPoint x="-50" y="120" as="sourcePoint" />
            <mxPoint y="70" as="targetPoint" />
          </mxGeometry>
        </mxCell>
        <mxCell id="5MbfwUPGWR8fdKyCLbyf-50" value="BOOL" style="rounded=0;whiteSpace=wrap;html=1;align=left;" parent="r7-0U3KU1S3eSfeqlKDV-24" vertex="1">
          <mxGeometry x="160" width="120" height="30" as="geometry" />
        </mxCell>
        <mxCell id="r7-0U3KU1S3eSfeqlKDV-27" value="" style="group;align=left;" parent="1" vertex="1" connectable="0">
          <mxGeometry x="80" y="290" width="280" height="30" as="geometry" />
        </mxCell>
        <mxCell id="r7-0U3KU1S3eSfeqlKDV-28" value="status" style="text;html=1;align=left;verticalAlign=middle;whiteSpace=wrap;rounded=0;labelBorderColor=none;" parent="r7-0U3KU1S3eSfeqlKDV-27" vertex="1">
          <mxGeometry width="280" height="30" as="geometry" />
        </mxCell>
        <mxCell id="r7-0U3KU1S3eSfeqlKDV-29" value="" style="endArrow=none;html=1;rounded=0;exitX=0;exitY=1;exitDx=0;exitDy=0;entryX=1;entryY=1;entryDx=0;entryDy=0;align=left;" parent="r7-0U3KU1S3eSfeqlKDV-27" source="r7-0U3KU1S3eSfeqlKDV-28" target="r7-0U3KU1S3eSfeqlKDV-28" edge="1">
          <mxGeometry width="50" height="50" relative="1" as="geometry">
            <mxPoint x="-50" y="120" as="sourcePoint" />
            <mxPoint y="70" as="targetPoint" />
          </mxGeometry>
        </mxCell>
        <mxCell id="5MbfwUPGWR8fdKyCLbyf-51" value="BOOL" style="rounded=0;whiteSpace=wrap;html=1;align=left;" parent="r7-0U3KU1S3eSfeqlKDV-27" vertex="1">
          <mxGeometry x="160" width="120" height="30" as="geometry" />
        </mxCell>
        <mxCell id="YZj0zw7wTLtwygs7arW9-1" value="&lt;span style=&quot;font-size: 22px;&quot;&gt;&lt;b&gt;USER&lt;/b&gt;&lt;/span&gt;" style="rounded=0;whiteSpace=wrap;html=1;align=center;" parent="1" vertex="1">
          <mxGeometry x="480" y="160" width="280" height="40" as="geometry" />
        </mxCell>
        <mxCell id="YZj0zw7wTLtwygs7arW9-2" value="" style="rounded=0;whiteSpace=wrap;html=1;align=left;" parent="1" vertex="1">
          <mxGeometry x="480" y="200" width="280" height="160" as="geometry" />
        </mxCell>
        <mxCell id="YZj0zw7wTLtwygs7arW9-3" value="" style="group;align=left;" parent="1" vertex="1" connectable="0">
          <mxGeometry x="480" y="200" width="280" height="30" as="geometry" />
        </mxCell>
        <mxCell id="YZj0zw7wTLtwygs7arW9-4" value="username" style="text;html=1;align=left;verticalAlign=middle;whiteSpace=wrap;rounded=0;labelBorderColor=none;" parent="YZj0zw7wTLtwygs7arW9-3" vertex="1">
          <mxGeometry width="280" height="30" as="geometry" />
        </mxCell>
        <mxCell id="YZj0zw7wTLtwygs7arW9-5" value="" style="endArrow=none;html=1;rounded=0;exitX=0;exitY=1;exitDx=0;exitDy=0;entryX=1;entryY=1;entryDx=0;entryDy=0;align=left;" parent="YZj0zw7wTLtwygs7arW9-3" source="YZj0zw7wTLtwygs7arW9-4" target="YZj0zw7wTLtwygs7arW9-4" edge="1">
          <mxGeometry width="50" height="50" relative="1" as="geometry">
            <mxPoint x="-50" y="120" as="sourcePoint" />
            <mxPoint y="70" as="targetPoint" />
          </mxGeometry>
        </mxCell>
        <mxCell id="YZj0zw7wTLtwygs7arW9-6" value="VARCHAR(255)" style="rounded=0;whiteSpace=wrap;html=1;align=left;" parent="YZj0zw7wTLtwygs7arW9-3" vertex="1">
          <mxGeometry x="160" width="120" height="30" as="geometry" />
        </mxCell>
        <mxCell id="YZj0zw7wTLtwygs7arW9-7" value="" style="group;align=left;" parent="1" vertex="1" connectable="0">
          <mxGeometry x="480" y="230" width="280" height="30" as="geometry" />
        </mxCell>
        <mxCell id="YZj0zw7wTLtwygs7arW9-8" value="fullname" style="text;html=1;align=left;verticalAlign=middle;whiteSpace=wrap;rounded=0;labelBorderColor=none;" parent="YZj0zw7wTLtwygs7arW9-7" vertex="1">
          <mxGeometry width="280" height="30" as="geometry" />
        </mxCell>
        <mxCell id="YZj0zw7wTLtwygs7arW9-9" value="" style="endArrow=none;html=1;rounded=0;exitX=0;exitY=1;exitDx=0;exitDy=0;entryX=1;entryY=1;entryDx=0;entryDy=0;align=left;" parent="YZj0zw7wTLtwygs7arW9-7" source="YZj0zw7wTLtwygs7arW9-8" target="YZj0zw7wTLtwygs7arW9-8" edge="1">
          <mxGeometry width="50" height="50" relative="1" as="geometry">
            <mxPoint x="-50" y="120" as="sourcePoint" />
            <mxPoint y="70" as="targetPoint" />
          </mxGeometry>
        </mxCell>
        <mxCell id="YZj0zw7wTLtwygs7arW9-10" value="VARCHAR(255)" style="rounded=0;whiteSpace=wrap;html=1;align=left;" parent="YZj0zw7wTLtwygs7arW9-7" vertex="1">
          <mxGeometry x="160" width="120" height="30" as="geometry" />
        </mxCell>
        <mxCell id="YZj0zw7wTLtwygs7arW9-11" value="" style="group;align=left;" parent="1" vertex="1" connectable="0">
          <mxGeometry x="480" y="260" width="280" height="30" as="geometry" />
        </mxCell>
        <mxCell id="YZj0zw7wTLtwygs7arW9-12" value="avatar" style="text;html=1;align=left;verticalAlign=middle;whiteSpace=wrap;rounded=0;labelBorderColor=none;" parent="YZj0zw7wTLtwygs7arW9-11" vertex="1">
          <mxGeometry width="280" height="30" as="geometry" />
        </mxCell>
        <mxCell id="YZj0zw7wTLtwygs7arW9-13" value="" style="endArrow=none;html=1;rounded=0;exitX=0;exitY=1;exitDx=0;exitDy=0;entryX=1;entryY=1;entryDx=0;entryDy=0;align=left;" parent="YZj0zw7wTLtwygs7arW9-11" source="YZj0zw7wTLtwygs7arW9-12" target="YZj0zw7wTLtwygs7arW9-12" edge="1">
          <mxGeometry width="50" height="50" relative="1" as="geometry">
            <mxPoint x="-50" y="120" as="sourcePoint" />
            <mxPoint y="70" as="targetPoint" />
          </mxGeometry>
        </mxCell>
        <mxCell id="YZj0zw7wTLtwygs7arW9-14" value="VARCHAR(255)" style="rounded=0;whiteSpace=wrap;html=1;align=left;" parent="YZj0zw7wTLtwygs7arW9-11" vertex="1">
          <mxGeometry x="160" width="120" height="30" as="geometry" />
        </mxCell>
        <mxCell id="YZj0zw7wTLtwygs7arW9-23" value="" style="group;align=left;" parent="1" vertex="1" connectable="0">
          <mxGeometry x="480" y="290" width="280" height="30" as="geometry" />
        </mxCell>
        <mxCell id="YZj0zw7wTLtwygs7arW9-26" value="VARCHAR(20)" style="rounded=0;whiteSpace=wrap;html=1;align=left;" parent="YZj0zw7wTLtwygs7arW9-23" vertex="1">
          <mxGeometry x="160" width="120" height="30" as="geometry" />
        </mxCell>
        <mxCell id="DjcFM1o2eZnSeXsRzPJw-1" value="" style="edgeStyle=entityRelationEdgeStyle;fontSize=12;html=1;endArrow=ERzeroToOne;startArrow=ERmandOne;rounded=0;exitX=1;exitY=0.5;exitDx=0;exitDy=0;entryX=0;entryY=0.5;entryDx=0;entryDy=0;" parent="1" source="r7-0U3KU1S3eSfeqlKDV-9" target="YZj0zw7wTLtwygs7arW9-4" edge="1">
          <mxGeometry width="100" height="100" relative="1" as="geometry">
            <mxPoint x="400" y="450" as="sourcePoint" />
            <mxPoint x="500" y="350" as="targetPoint" />
          </mxGeometry>
        </mxCell>
        <mxCell id="pU_csxRjSMOdD0A7SyPA-1" value="&lt;b&gt;&lt;font style=&quot;font-size: 22px;&quot;&gt;SCHEDULED_REMINDER&lt;/font&gt;&lt;/b&gt;" style="rounded=0;whiteSpace=wrap;html=1;align=center;" parent="1" vertex="1">
          <mxGeometry x="880" y="160" width="280" height="40" as="geometry" />
        </mxCell>
        <mxCell id="pU_csxRjSMOdD0A7SyPA-2" value="" style="rounded=0;whiteSpace=wrap;html=1;align=left;" parent="1" vertex="1">
          <mxGeometry x="880" y="200" width="280" height="340" as="geometry" />
        </mxCell>
        <mxCell id="pU_csxRjSMOdD0A7SyPA-3" value="" style="group;align=left;" parent="1" vertex="1" connectable="0">
          <mxGeometry x="880" y="200" width="280" height="30" as="geometry" />
        </mxCell>
        <mxCell id="pU_csxRjSMOdD0A7SyPA-4" value="remider_id" style="text;html=1;align=left;verticalAlign=middle;whiteSpace=wrap;rounded=0;labelBorderColor=none;" parent="pU_csxRjSMOdD0A7SyPA-3" vertex="1">
          <mxGeometry width="280" height="30" as="geometry" />
        </mxCell>
        <mxCell id="pU_csxRjSMOdD0A7SyPA-5" value="" style="endArrow=none;html=1;rounded=0;exitX=0;exitY=1;exitDx=0;exitDy=0;entryX=1;entryY=1;entryDx=0;entryDy=0;align=left;" parent="pU_csxRjSMOdD0A7SyPA-3" source="pU_csxRjSMOdD0A7SyPA-4" target="pU_csxRjSMOdD0A7SyPA-4" edge="1">
          <mxGeometry width="50" height="50" relative="1" as="geometry">
            <mxPoint x="-50" y="120" as="sourcePoint" />
            <mxPoint y="70" as="targetPoint" />
          </mxGeometry>
        </mxCell>
        <mxCell id="pU_csxRjSMOdD0A7SyPA-6" value="AUTO_INCR" style="rounded=0;whiteSpace=wrap;html=1;align=left;" parent="pU_csxRjSMOdD0A7SyPA-3" vertex="1">
          <mxGeometry x="160" width="120" height="30" as="geometry" />
        </mxCell>
        <mxCell id="pU_csxRjSMOdD0A7SyPA-11" value="" style="group;align=left;" parent="1" vertex="1" connectable="0">
          <mxGeometry x="880" y="230" width="280" height="30" as="geometry" />
        </mxCell>
        <mxCell id="pU_csxRjSMOdD0A7SyPA-12" value="title" style="text;html=1;align=left;verticalAlign=middle;whiteSpace=wrap;rounded=0;labelBorderColor=none;" parent="pU_csxRjSMOdD0A7SyPA-11" vertex="1">
          <mxGeometry width="280" height="30" as="geometry" />
        </mxCell>
        <mxCell id="pU_csxRjSMOdD0A7SyPA-13" value="" style="endArrow=none;html=1;rounded=0;exitX=0;exitY=1;exitDx=0;exitDy=0;entryX=1;entryY=1;entryDx=0;entryDy=0;align=left;" parent="pU_csxRjSMOdD0A7SyPA-11" source="pU_csxRjSMOdD0A7SyPA-12" target="pU_csxRjSMOdD0A7SyPA-12" edge="1">
          <mxGeometry width="50" height="50" relative="1" as="geometry">
            <mxPoint x="-50" y="120" as="sourcePoint" />
            <mxPoint y="70" as="targetPoint" />
          </mxGeometry>
        </mxCell>
        <mxCell id="pU_csxRjSMOdD0A7SyPA-14" value="TEXT" style="rounded=0;whiteSpace=wrap;html=1;align=left;" parent="pU_csxRjSMOdD0A7SyPA-11" vertex="1">
          <mxGeometry x="160" width="120" height="30" as="geometry" />
        </mxCell>
        <mxCell id="pU_csxRjSMOdD0A7SyPA-15" value="" style="group;align=left;" parent="1" vertex="1" connectable="0">
          <mxGeometry x="880" y="260" width="280" height="30" as="geometry" />
        </mxCell>
        <mxCell id="pU_csxRjSMOdD0A7SyPA-16" value="description" style="text;html=1;align=left;verticalAlign=middle;whiteSpace=wrap;rounded=0;labelBorderColor=none;" parent="pU_csxRjSMOdD0A7SyPA-15" vertex="1">
          <mxGeometry width="280" height="30" as="geometry" />
        </mxCell>
        <mxCell id="pU_csxRjSMOdD0A7SyPA-17" value="" style="endArrow=none;html=1;rounded=0;exitX=0;exitY=1;exitDx=0;exitDy=0;entryX=1;entryY=1;entryDx=0;entryDy=0;align=left;" parent="pU_csxRjSMOdD0A7SyPA-15" source="pU_csxRjSMOdD0A7SyPA-16" target="pU_csxRjSMOdD0A7SyPA-16" edge="1">
          <mxGeometry width="50" height="50" relative="1" as="geometry">
            <mxPoint x="-50" y="120" as="sourcePoint" />
            <mxPoint y="70" as="targetPoint" />
          </mxGeometry>
        </mxCell>
        <mxCell id="pU_csxRjSMOdD0A7SyPA-18" value="TEXT" style="rounded=0;whiteSpace=wrap;html=1;align=left;" parent="pU_csxRjSMOdD0A7SyPA-15" vertex="1">
          <mxGeometry x="160" width="120" height="30" as="geometry" />
        </mxCell>
        <mxCell id="pU_csxRjSMOdD0A7SyPA-20" value="" style="group;align=left;" parent="1" vertex="1" connectable="0">
          <mxGeometry x="880" y="290" width="280" height="30" as="geometry" />
        </mxCell>
        <mxCell id="pU_csxRjSMOdD0A7SyPA-21" value="time" style="text;html=1;align=left;verticalAlign=middle;whiteSpace=wrap;rounded=0;labelBorderColor=none;" parent="pU_csxRjSMOdD0A7SyPA-20" vertex="1">
          <mxGeometry width="280" height="30" as="geometry" />
        </mxCell>
        <mxCell id="pU_csxRjSMOdD0A7SyPA-22" value="" style="endArrow=none;html=1;rounded=0;exitX=0;exitY=1;exitDx=0;exitDy=0;entryX=1;entryY=1;entryDx=0;entryDy=0;align=left;" parent="pU_csxRjSMOdD0A7SyPA-20" source="pU_csxRjSMOdD0A7SyPA-21" target="pU_csxRjSMOdD0A7SyPA-21" edge="1">
          <mxGeometry width="50" height="50" relative="1" as="geometry">
            <mxPoint x="-50" y="120" as="sourcePoint" />
            <mxPoint y="70" as="targetPoint" />
          </mxGeometry>
        </mxCell>
        <mxCell id="pU_csxRjSMOdD0A7SyPA-23" value="DATETIME" style="rounded=0;whiteSpace=wrap;html=1;align=left;" parent="pU_csxRjSMOdD0A7SyPA-20" vertex="1">
          <mxGeometry x="160" width="120" height="30" as="geometry" />
        </mxCell>
        <mxCell id="pU_csxRjSMOdD0A7SyPA-24" value="" style="group;align=left;" parent="1" vertex="1" connectable="0">
          <mxGeometry x="880" y="320" width="280" height="30" as="geometry" />
        </mxCell>
        <mxCell id="pU_csxRjSMOdD0A7SyPA-25" value="place" style="text;html=1;align=left;verticalAlign=middle;whiteSpace=wrap;rounded=0;labelBorderColor=none;" parent="pU_csxRjSMOdD0A7SyPA-24" vertex="1">
          <mxGeometry width="280" height="30" as="geometry" />
        </mxCell>
        <mxCell id="pU_csxRjSMOdD0A7SyPA-26" value="" style="endArrow=none;html=1;rounded=0;exitX=0;exitY=1;exitDx=0;exitDy=0;entryX=1;entryY=1;entryDx=0;entryDy=0;align=left;" parent="pU_csxRjSMOdD0A7SyPA-24" source="pU_csxRjSMOdD0A7SyPA-25" target="pU_csxRjSMOdD0A7SyPA-25" edge="1">
          <mxGeometry width="50" height="50" relative="1" as="geometry">
            <mxPoint x="-50" y="120" as="sourcePoint" />
            <mxPoint y="70" as="targetPoint" />
          </mxGeometry>
        </mxCell>
        <mxCell id="pU_csxRjSMOdD0A7SyPA-27" value="TEXT" style="rounded=0;whiteSpace=wrap;html=1;align=left;" parent="pU_csxRjSMOdD0A7SyPA-24" vertex="1">
          <mxGeometry x="160" width="120" height="30" as="geometry" />
        </mxCell>
        <mxCell id="pU_csxRjSMOdD0A7SyPA-28" value="" style="group;align=left;" parent="1" vertex="1" connectable="0">
          <mxGeometry x="880" y="350" width="280" height="30" as="geometry" />
        </mxCell>
        <mxCell id="pU_csxRjSMOdD0A7SyPA-29" value="tags" style="text;html=1;align=left;verticalAlign=middle;whiteSpace=wrap;rounded=0;labelBorderColor=none;" parent="pU_csxRjSMOdD0A7SyPA-28" vertex="1">
          <mxGeometry width="280" height="30" as="geometry" />
        </mxCell>
        <mxCell id="pU_csxRjSMOdD0A7SyPA-30" value="" style="endArrow=none;html=1;rounded=0;exitX=0;exitY=1;exitDx=0;exitDy=0;entryX=1;entryY=1;entryDx=0;entryDy=0;align=left;" parent="pU_csxRjSMOdD0A7SyPA-28" source="pU_csxRjSMOdD0A7SyPA-29" target="pU_csxRjSMOdD0A7SyPA-29" edge="1">
          <mxGeometry width="50" height="50" relative="1" as="geometry">
            <mxPoint x="-50" y="120" as="sourcePoint" />
            <mxPoint y="70" as="targetPoint" />
          </mxGeometry>
        </mxCell>
        <mxCell id="pU_csxRjSMOdD0A7SyPA-31" value="TEXT" style="rounded=0;whiteSpace=wrap;html=1;align=left;" parent="pU_csxRjSMOdD0A7SyPA-28" vertex="1">
          <mxGeometry x="160" width="120" height="30" as="geometry" />
        </mxCell>
        <mxCell id="DcZ_CSGGjANzheqNLnKH-1" value="&lt;b&gt;&lt;font style=&quot;font-size: 22px;&quot;&gt;HABIT&lt;/font&gt;&lt;/b&gt;" style="rounded=0;whiteSpace=wrap;html=1;align=center;" parent="1" vertex="1">
          <mxGeometry x="480" y="440" width="280" height="40" as="geometry" />
        </mxCell>
        <mxCell id="DcZ_CSGGjANzheqNLnKH-2" value="" style="rounded=0;whiteSpace=wrap;html=1;align=left;" parent="1" vertex="1">
          <mxGeometry x="480" y="480" width="280" height="250" as="geometry" />
        </mxCell>
        <mxCell id="DcZ_CSGGjANzheqNLnKH-3" value="" style="group;align=left;" parent="1" vertex="1" connectable="0">
          <mxGeometry x="480" y="480" width="280" height="30" as="geometry" />
        </mxCell>
        <mxCell id="DcZ_CSGGjANzheqNLnKH-4" value="habit_id" style="text;html=1;align=left;verticalAlign=middle;whiteSpace=wrap;rounded=0;labelBorderColor=none;" parent="DcZ_CSGGjANzheqNLnKH-3" vertex="1">
          <mxGeometry width="280" height="30" as="geometry" />
        </mxCell>
        <mxCell id="DcZ_CSGGjANzheqNLnKH-5" value="" style="endArrow=none;html=1;rounded=0;exitX=0;exitY=1;exitDx=0;exitDy=0;entryX=1;entryY=1;entryDx=0;entryDy=0;align=left;" parent="DcZ_CSGGjANzheqNLnKH-3" source="DcZ_CSGGjANzheqNLnKH-4" target="DcZ_CSGGjANzheqNLnKH-4" edge="1">
          <mxGeometry width="50" height="50" relative="1" as="geometry">
            <mxPoint x="-50" y="120" as="sourcePoint" />
            <mxPoint y="70" as="targetPoint" />
          </mxGeometry>
        </mxCell>
        <mxCell id="DcZ_CSGGjANzheqNLnKH-6" value="AUTO_INCR" style="rounded=0;whiteSpace=wrap;html=1;align=left;" parent="DcZ_CSGGjANzheqNLnKH-3" vertex="1">
          <mxGeometry x="160" width="120" height="30" as="geometry" />
        </mxCell>
        <mxCell id="DcZ_CSGGjANzheqNLnKH-7" value="" style="group;align=left;" parent="1" vertex="1" connectable="0">
          <mxGeometry x="880" y="440" width="280" height="30" as="geometry" />
        </mxCell>
        <mxCell id="DcZ_CSGGjANzheqNLnKH-8" value="owner" style="text;html=1;align=left;verticalAlign=middle;whiteSpace=wrap;rounded=0;labelBorderColor=none;" parent="DcZ_CSGGjANzheqNLnKH-7" vertex="1">
          <mxGeometry width="280" height="30" as="geometry" />
        </mxCell>
        <mxCell id="DcZ_CSGGjANzheqNLnKH-9" value="" style="endArrow=none;html=1;rounded=0;exitX=0;exitY=1;exitDx=0;exitDy=0;entryX=1;entryY=1;entryDx=0;entryDy=0;align=left;" parent="DcZ_CSGGjANzheqNLnKH-7" source="DcZ_CSGGjANzheqNLnKH-8" target="DcZ_CSGGjANzheqNLnKH-8" edge="1">
          <mxGeometry width="50" height="50" relative="1" as="geometry">
            <mxPoint x="-50" y="120" as="sourcePoint" />
            <mxPoint y="70" as="targetPoint" />
          </mxGeometry>
        </mxCell>
        <mxCell id="DcZ_CSGGjANzheqNLnKH-10" value="VARCHAR(255)" style="rounded=0;whiteSpace=wrap;html=1;align=left;" parent="DcZ_CSGGjANzheqNLnKH-7" vertex="1">
          <mxGeometry x="160" width="120" height="30" as="geometry" />
        </mxCell>
        <mxCell id="DcZ_CSGGjANzheqNLnKH-11" value="" style="group;align=left;" parent="1" vertex="1" connectable="0">
          <mxGeometry x="880" y="470" width="280" height="30" as="geometry" />
        </mxCell>
        <mxCell id="DcZ_CSGGjANzheqNLnKH-12" value="created_at" style="text;html=1;align=left;verticalAlign=middle;whiteSpace=wrap;rounded=0;labelBorderColor=none;" parent="DcZ_CSGGjANzheqNLnKH-11" vertex="1">
          <mxGeometry width="280" height="30" as="geometry" />
        </mxCell>
        <mxCell id="DcZ_CSGGjANzheqNLnKH-13" value="" style="endArrow=none;html=1;rounded=0;exitX=0;exitY=1;exitDx=0;exitDy=0;entryX=1;entryY=1;entryDx=0;entryDy=0;align=left;" parent="DcZ_CSGGjANzheqNLnKH-11" source="DcZ_CSGGjANzheqNLnKH-12" target="DcZ_CSGGjANzheqNLnKH-12" edge="1">
          <mxGeometry width="50" height="50" relative="1" as="geometry">
            <mxPoint x="-50" y="120" as="sourcePoint" />
            <mxPoint y="70" as="targetPoint" />
          </mxGeometry>
        </mxCell>
        <mxCell id="DcZ_CSGGjANzheqNLnKH-14" value="DATETIME" style="rounded=0;whiteSpace=wrap;html=1;align=left;" parent="DcZ_CSGGjANzheqNLnKH-11" vertex="1">
          <mxGeometry x="160" width="120" height="30" as="geometry" />
        </mxCell>
        <mxCell id="DcZ_CSGGjANzheqNLnKH-19" value="" style="group;align=left;" parent="1" vertex="1" connectable="0">
          <mxGeometry x="880" y="500" width="280" height="100" as="geometry" />
        </mxCell>
        <mxCell id="DcZ_CSGGjANzheqNLnKH-20" value="last_modified" style="text;html=1;align=left;verticalAlign=middle;whiteSpace=wrap;rounded=0;labelBorderColor=none;" parent="DcZ_CSGGjANzheqNLnKH-19" vertex="1">
          <mxGeometry width="280" height="30" as="geometry" />
        </mxCell>
        <mxCell id="DcZ_CSGGjANzheqNLnKH-21" value="" style="endArrow=none;html=1;rounded=0;exitX=0;exitY=1;exitDx=0;exitDy=0;entryX=1;entryY=1;entryDx=0;entryDy=0;align=left;" parent="DcZ_CSGGjANzheqNLnKH-19" source="DcZ_CSGGjANzheqNLnKH-20" target="DcZ_CSGGjANzheqNLnKH-20" edge="1">
          <mxGeometry width="50" height="50" relative="1" as="geometry">
            <mxPoint x="-50" y="120" as="sourcePoint" />
            <mxPoint y="70" as="targetPoint" />
          </mxGeometry>
        </mxCell>
        <mxCell id="DcZ_CSGGjANzheqNLnKH-22" value="DATETIME" style="rounded=0;whiteSpace=wrap;html=1;align=left;" parent="DcZ_CSGGjANzheqNLnKH-19" vertex="1">
          <mxGeometry x="160" width="120" height="30" as="geometry" />
        </mxCell>
        <mxCell id="DcZ_CSGGjANzheqNLnKH-23" value="&lt;b&gt;&lt;font style=&quot;font-size: 22px;&quot;&gt;REMINDER&lt;/font&gt;&lt;/b&gt;" style="rounded=0;whiteSpace=wrap;html=1;align=center;" parent="1" vertex="1">
          <mxGeometry x="880" y="560" width="280" height="40" as="geometry" />
        </mxCell>
        <mxCell id="DcZ_CSGGjANzheqNLnKH-24" value="" style="rounded=0;whiteSpace=wrap;html=1;align=left;" parent="1" vertex="1">
          <mxGeometry x="880" y="600" width="280" height="280" as="geometry" />
        </mxCell>
        <mxCell id="DcZ_CSGGjANzheqNLnKH-25" value="" style="group;align=left;" parent="1" vertex="1" connectable="0">
          <mxGeometry x="880" y="600" width="280" height="30" as="geometry" />
        </mxCell>
        <mxCell id="DcZ_CSGGjANzheqNLnKH-26" value="remider_id" style="text;html=1;align=left;verticalAlign=middle;whiteSpace=wrap;rounded=0;labelBorderColor=none;" parent="DcZ_CSGGjANzheqNLnKH-25" vertex="1">
          <mxGeometry width="280" height="30" as="geometry" />
        </mxCell>
        <mxCell id="DcZ_CSGGjANzheqNLnKH-27" value="" style="endArrow=none;html=1;rounded=0;exitX=0;exitY=1;exitDx=0;exitDy=0;entryX=1;entryY=1;entryDx=0;entryDy=0;align=left;" parent="DcZ_CSGGjANzheqNLnKH-25" source="DcZ_CSGGjANzheqNLnKH-26" target="DcZ_CSGGjANzheqNLnKH-26" edge="1">
          <mxGeometry width="50" height="50" relative="1" as="geometry">
            <mxPoint x="-50" y="120" as="sourcePoint" />
            <mxPoint y="70" as="targetPoint" />
          </mxGeometry>
        </mxCell>
        <mxCell id="DcZ_CSGGjANzheqNLnKH-28" value="AUTO_INCR" style="rounded=0;whiteSpace=wrap;html=1;align=left;" parent="DcZ_CSGGjANzheqNLnKH-25" vertex="1">
          <mxGeometry x="160" width="120" height="30" as="geometry" />
        </mxCell>
        <mxCell id="DcZ_CSGGjANzheqNLnKH-29" value="" style="group;align=left;" parent="1" vertex="1" connectable="0">
          <mxGeometry x="880" y="630" width="280" height="30" as="geometry" />
        </mxCell>
        <mxCell id="DcZ_CSGGjANzheqNLnKH-30" value="title" style="text;html=1;align=left;verticalAlign=middle;whiteSpace=wrap;rounded=0;labelBorderColor=none;" parent="DcZ_CSGGjANzheqNLnKH-29" vertex="1">
          <mxGeometry width="280" height="30" as="geometry" />
        </mxCell>
        <mxCell id="DcZ_CSGGjANzheqNLnKH-31" value="" style="endArrow=none;html=1;rounded=0;exitX=0;exitY=1;exitDx=0;exitDy=0;entryX=1;entryY=1;entryDx=0;entryDy=0;align=left;" parent="DcZ_CSGGjANzheqNLnKH-29" source="DcZ_CSGGjANzheqNLnKH-30" target="DcZ_CSGGjANzheqNLnKH-30" edge="1">
          <mxGeometry width="50" height="50" relative="1" as="geometry">
            <mxPoint x="-50" y="120" as="sourcePoint" />
            <mxPoint y="70" as="targetPoint" />
          </mxGeometry>
        </mxCell>
        <mxCell id="DcZ_CSGGjANzheqNLnKH-32" value="TEXT" style="rounded=0;whiteSpace=wrap;html=1;align=left;" parent="DcZ_CSGGjANzheqNLnKH-29" vertex="1">
          <mxGeometry x="160" width="120" height="30" as="geometry" />
        </mxCell>
        <mxCell id="DcZ_CSGGjANzheqNLnKH-33" value="" style="group;align=left;" parent="1" vertex="1" connectable="0">
          <mxGeometry x="880" y="660" width="280" height="30" as="geometry" />
        </mxCell>
        <mxCell id="DcZ_CSGGjANzheqNLnKH-34" value="description" style="text;html=1;align=left;verticalAlign=middle;whiteSpace=wrap;rounded=0;labelBorderColor=none;" parent="DcZ_CSGGjANzheqNLnKH-33" vertex="1">
          <mxGeometry width="280" height="30" as="geometry" />
        </mxCell>
        <mxCell id="DcZ_CSGGjANzheqNLnKH-35" value="" style="endArrow=none;html=1;rounded=0;exitX=0;exitY=1;exitDx=0;exitDy=0;entryX=1;entryY=1;entryDx=0;entryDy=0;align=left;" parent="DcZ_CSGGjANzheqNLnKH-33" source="DcZ_CSGGjANzheqNLnKH-34" target="DcZ_CSGGjANzheqNLnKH-34" edge="1">
          <mxGeometry width="50" height="50" relative="1" as="geometry">
            <mxPoint x="-50" y="120" as="sourcePoint" />
            <mxPoint y="70" as="targetPoint" />
          </mxGeometry>
        </mxCell>
        <mxCell id="DcZ_CSGGjANzheqNLnKH-36" value="TEXT" style="rounded=0;whiteSpace=wrap;html=1;align=left;" parent="DcZ_CSGGjANzheqNLnKH-33" vertex="1">
          <mxGeometry x="160" width="120" height="30" as="geometry" />
        </mxCell>
        <mxCell id="DcZ_CSGGjANzheqNLnKH-37" value="" style="group;align=left;" parent="1" vertex="1" connectable="0">
          <mxGeometry x="880" y="690" width="280" height="30" as="geometry" />
        </mxCell>
        <mxCell id="DcZ_CSGGjANzheqNLnKH-38" value="time" style="text;html=1;align=left;verticalAlign=middle;whiteSpace=wrap;rounded=0;labelBorderColor=none;" parent="DcZ_CSGGjANzheqNLnKH-37" vertex="1">
          <mxGeometry width="280" height="30" as="geometry" />
        </mxCell>
        <mxCell id="DcZ_CSGGjANzheqNLnKH-39" value="" style="endArrow=none;html=1;rounded=0;exitX=0;exitY=1;exitDx=0;exitDy=0;entryX=1;entryY=1;entryDx=0;entryDy=0;align=left;" parent="DcZ_CSGGjANzheqNLnKH-37" source="DcZ_CSGGjANzheqNLnKH-38" target="DcZ_CSGGjANzheqNLnKH-38" edge="1">
          <mxGeometry width="50" height="50" relative="1" as="geometry">
            <mxPoint x="-50" y="120" as="sourcePoint" />
            <mxPoint y="70" as="targetPoint" />
          </mxGeometry>
        </mxCell>
        <mxCell id="DcZ_CSGGjANzheqNLnKH-40" value="DATETIME" style="rounded=0;whiteSpace=wrap;html=1;align=left;" parent="DcZ_CSGGjANzheqNLnKH-37" vertex="1">
          <mxGeometry x="160" width="120" height="30" as="geometry" />
        </mxCell>
        <mxCell id="DcZ_CSGGjANzheqNLnKH-41" value="" style="group;align=left;" parent="1" vertex="1" connectable="0">
          <mxGeometry x="880" y="720" width="280" height="30" as="geometry" />
        </mxCell>
        <mxCell id="DcZ_CSGGjANzheqNLnKH-42" value="place" style="text;html=1;align=left;verticalAlign=middle;whiteSpace=wrap;rounded=0;labelBorderColor=none;" parent="DcZ_CSGGjANzheqNLnKH-41" vertex="1">
          <mxGeometry width="280" height="30" as="geometry" />
        </mxCell>
        <mxCell id="DcZ_CSGGjANzheqNLnKH-43" value="" style="endArrow=none;html=1;rounded=0;exitX=0;exitY=1;exitDx=0;exitDy=0;entryX=1;entryY=1;entryDx=0;entryDy=0;align=left;" parent="DcZ_CSGGjANzheqNLnKH-41" source="DcZ_CSGGjANzheqNLnKH-42" target="DcZ_CSGGjANzheqNLnKH-42" edge="1">
          <mxGeometry width="50" height="50" relative="1" as="geometry">
            <mxPoint x="-50" y="120" as="sourcePoint" />
            <mxPoint y="70" as="targetPoint" />
          </mxGeometry>
        </mxCell>
        <mxCell id="DcZ_CSGGjANzheqNLnKH-44" value="TEXT" style="rounded=0;whiteSpace=wrap;html=1;align=left;" parent="DcZ_CSGGjANzheqNLnKH-41" vertex="1">
          <mxGeometry x="160" width="120" height="30" as="geometry" />
        </mxCell>
        <mxCell id="DcZ_CSGGjANzheqNLnKH-45" value="" style="group;align=left;" parent="1" vertex="1" connectable="0">
          <mxGeometry x="880" y="750" width="280" height="30" as="geometry" />
        </mxCell>
        <mxCell id="DcZ_CSGGjANzheqNLnKH-46" value="tags" style="text;html=1;align=left;verticalAlign=middle;whiteSpace=wrap;rounded=0;labelBorderColor=none;" parent="DcZ_CSGGjANzheqNLnKH-45" vertex="1">
          <mxGeometry width="280" height="30" as="geometry" />
        </mxCell>
        <mxCell id="DcZ_CSGGjANzheqNLnKH-47" value="" style="endArrow=none;html=1;rounded=0;exitX=0;exitY=1;exitDx=0;exitDy=0;entryX=1;entryY=1;entryDx=0;entryDy=0;align=left;" parent="DcZ_CSGGjANzheqNLnKH-45" source="DcZ_CSGGjANzheqNLnKH-46" target="DcZ_CSGGjANzheqNLnKH-46" edge="1">
          <mxGeometry width="50" height="50" relative="1" as="geometry">
            <mxPoint x="-50" y="120" as="sourcePoint" />
            <mxPoint y="70" as="targetPoint" />
          </mxGeometry>
        </mxCell>
        <mxCell id="DcZ_CSGGjANzheqNLnKH-48" value="TEXT" style="rounded=0;whiteSpace=wrap;html=1;align=left;" parent="DcZ_CSGGjANzheqNLnKH-45" vertex="1">
          <mxGeometry x="160" width="120" height="30" as="geometry" />
        </mxCell>
        <mxCell id="DcZ_CSGGjANzheqNLnKH-49" value="" style="group;align=left;" parent="1" vertex="1" connectable="0">
          <mxGeometry x="880" y="780" width="280" height="30" as="geometry" />
        </mxCell>
        <mxCell id="DcZ_CSGGjANzheqNLnKH-50" value="status" style="text;html=1;align=left;verticalAlign=middle;whiteSpace=wrap;rounded=0;labelBorderColor=none;" parent="DcZ_CSGGjANzheqNLnKH-49" vertex="1">
          <mxGeometry width="280" height="30" as="geometry" />
        </mxCell>
        <mxCell id="DcZ_CSGGjANzheqNLnKH-51" value="" style="endArrow=none;html=1;rounded=0;exitX=0;exitY=1;exitDx=0;exitDy=0;entryX=1;entryY=1;entryDx=0;entryDy=0;align=left;" parent="DcZ_CSGGjANzheqNLnKH-49" source="DcZ_CSGGjANzheqNLnKH-50" target="DcZ_CSGGjANzheqNLnKH-50" edge="1">
          <mxGeometry width="50" height="50" relative="1" as="geometry">
            <mxPoint x="-50" y="120" as="sourcePoint" />
            <mxPoint y="70" as="targetPoint" />
          </mxGeometry>
        </mxCell>
        <mxCell id="DcZ_CSGGjANzheqNLnKH-52" value="ENUM" style="rounded=0;whiteSpace=wrap;html=1;align=left;" parent="DcZ_CSGGjANzheqNLnKH-49" vertex="1">
          <mxGeometry x="160" width="120" height="30" as="geometry" />
        </mxCell>
        <mxCell id="DcZ_CSGGjANzheqNLnKH-65" value="" style="group;align=left;" parent="1" vertex="1" connectable="0">
          <mxGeometry x="880" y="810" width="280" height="30" as="geometry" />
        </mxCell>
        <mxCell id="DcZ_CSGGjANzheqNLnKH-66" value="date" style="text;html=1;align=left;verticalAlign=middle;whiteSpace=wrap;rounded=0;labelBorderColor=none;" parent="DcZ_CSGGjANzheqNLnKH-65" vertex="1">
          <mxGeometry width="280" height="30" as="geometry" />
        </mxCell>
        <mxCell id="DcZ_CSGGjANzheqNLnKH-67" value="" style="endArrow=none;html=1;rounded=0;exitX=0;exitY=1;exitDx=0;exitDy=0;entryX=1;entryY=1;entryDx=0;entryDy=0;align=left;" parent="DcZ_CSGGjANzheqNLnKH-65" source="DcZ_CSGGjANzheqNLnKH-66" target="DcZ_CSGGjANzheqNLnKH-66" edge="1">
          <mxGeometry width="50" height="50" relative="1" as="geometry">
            <mxPoint x="-50" y="120" as="sourcePoint" />
            <mxPoint y="70" as="targetPoint" />
          </mxGeometry>
        </mxCell>
        <mxCell id="DcZ_CSGGjANzheqNLnKH-68" value="DATETIME" style="rounded=0;whiteSpace=wrap;html=1;align=left;" parent="DcZ_CSGGjANzheqNLnKH-65" vertex="1">
          <mxGeometry x="160" width="120" height="30" as="geometry" />
        </mxCell>
        <mxCell id="DcZ_CSGGjANzheqNLnKH-69" value="" style="group;align=left;" parent="1" vertex="1" connectable="0">
          <mxGeometry x="880" y="380" width="280" height="30" as="geometry" />
        </mxCell>
        <mxCell id="DcZ_CSGGjANzheqNLnKH-70" value="repeat" style="text;html=1;align=left;verticalAlign=middle;whiteSpace=wrap;rounded=0;labelBorderColor=none;" parent="DcZ_CSGGjANzheqNLnKH-69" vertex="1">
          <mxGeometry width="280" height="30" as="geometry" />
        </mxCell>
        <mxCell id="DcZ_CSGGjANzheqNLnKH-71" value="" style="endArrow=none;html=1;rounded=0;exitX=0;exitY=1;exitDx=0;exitDy=0;entryX=1;entryY=1;entryDx=0;entryDy=0;align=left;" parent="DcZ_CSGGjANzheqNLnKH-69" source="DcZ_CSGGjANzheqNLnKH-70" target="DcZ_CSGGjANzheqNLnKH-70" edge="1">
          <mxGeometry width="50" height="50" relative="1" as="geometry">
            <mxPoint x="-50" y="120" as="sourcePoint" />
            <mxPoint y="70" as="targetPoint" />
          </mxGeometry>
        </mxCell>
        <mxCell id="DcZ_CSGGjANzheqNLnKH-72" value="ENUM" style="rounded=0;whiteSpace=wrap;html=1;align=left;" parent="DcZ_CSGGjANzheqNLnKH-69" vertex="1">
          <mxGeometry x="160" width="120" height="30" as="geometry" />
        </mxCell>
        <mxCell id="DcZ_CSGGjANzheqNLnKH-73" value="" style="group;align=left;" parent="1" vertex="1" connectable="0">
          <mxGeometry x="880" y="410" width="280" height="30" as="geometry" />
        </mxCell>
        <mxCell id="DcZ_CSGGjANzheqNLnKH-74" value="status" style="text;html=1;align=left;verticalAlign=middle;whiteSpace=wrap;rounded=0;labelBorderColor=none;" parent="DcZ_CSGGjANzheqNLnKH-73" vertex="1">
          <mxGeometry width="280" height="30" as="geometry" />
        </mxCell>
        <mxCell id="DcZ_CSGGjANzheqNLnKH-75" value="" style="endArrow=none;html=1;rounded=0;exitX=0;exitY=1;exitDx=0;exitDy=0;entryX=1;entryY=1;entryDx=0;entryDy=0;align=left;" parent="DcZ_CSGGjANzheqNLnKH-73" source="DcZ_CSGGjANzheqNLnKH-74" target="DcZ_CSGGjANzheqNLnKH-74" edge="1">
          <mxGeometry width="50" height="50" relative="1" as="geometry">
            <mxPoint x="-50" y="120" as="sourcePoint" />
            <mxPoint y="70" as="targetPoint" />
          </mxGeometry>
        </mxCell>
        <mxCell id="DcZ_CSGGjANzheqNLnKH-76" value="ENUM" style="rounded=0;whiteSpace=wrap;html=1;align=left;" parent="DcZ_CSGGjANzheqNLnKH-73" vertex="1">
          <mxGeometry x="160" width="120" height="30" as="geometry" />
        </mxCell>
        <mxCell id="DcZ_CSGGjANzheqNLnKH-77" value="" style="group;align=left;" parent="1" vertex="1" connectable="0">
          <mxGeometry x="880" y="840" width="280" height="30" as="geometry" />
        </mxCell>
        <mxCell id="DcZ_CSGGjANzheqNLnKH-78" value="owner" style="text;html=1;align=left;verticalAlign=middle;whiteSpace=wrap;rounded=0;labelBorderColor=none;" parent="DcZ_CSGGjANzheqNLnKH-77" vertex="1">
          <mxGeometry width="280" height="30" as="geometry" />
        </mxCell>
        <mxCell id="DcZ_CSGGjANzheqNLnKH-79" value="" style="endArrow=none;html=1;rounded=0;exitX=0;exitY=1;exitDx=0;exitDy=0;entryX=1;entryY=1;entryDx=0;entryDy=0;align=left;" parent="DcZ_CSGGjANzheqNLnKH-77" source="DcZ_CSGGjANzheqNLnKH-78" target="DcZ_CSGGjANzheqNLnKH-78" edge="1">
          <mxGeometry width="50" height="50" relative="1" as="geometry">
            <mxPoint x="-50" y="120" as="sourcePoint" />
            <mxPoint y="70" as="targetPoint" />
          </mxGeometry>
        </mxCell>
        <mxCell id="DcZ_CSGGjANzheqNLnKH-80" value="VARCHAR(255)" style="rounded=0;whiteSpace=wrap;html=1;align=left;" parent="DcZ_CSGGjANzheqNLnKH-77" vertex="1">
          <mxGeometry x="160" width="120" height="30" as="geometry" />
        </mxCell>
        <mxCell id="lk23dLZlHlBoguHnwzzX-1" value="" style="edgeStyle=entityRelationEdgeStyle;fontSize=12;html=1;endArrow=ERoneToMany;startArrow=ERmandOne;rounded=0;exitX=1;exitY=0.5;exitDx=0;exitDy=0;entryX=0;entryY=0.5;entryDx=0;entryDy=0;" parent="1" target="DcZ_CSGGjANzheqNLnKH-8" edge="1">
          <mxGeometry width="100" height="100" relative="1" as="geometry">
            <mxPoint x="760" y="210" as="sourcePoint" />
            <mxPoint x="880" y="450" as="targetPoint" />
          </mxGeometry>
        </mxCell>
        <mxCell id="lk23dLZlHlBoguHnwzzX-3" value="" style="group;align=left;" parent="1" vertex="1" connectable="0">
          <mxGeometry x="480" y="510" width="280" height="30" as="geometry" />
        </mxCell>
        <mxCell id="lk23dLZlHlBoguHnwzzX-4" value="title" style="text;html=1;align=left;verticalAlign=middle;whiteSpace=wrap;rounded=0;labelBorderColor=none;" parent="lk23dLZlHlBoguHnwzzX-3" vertex="1">
          <mxGeometry width="280" height="30" as="geometry" />
        </mxCell>
        <mxCell id="lk23dLZlHlBoguHnwzzX-5" value="" style="endArrow=none;html=1;rounded=0;exitX=0;exitY=1;exitDx=0;exitDy=0;entryX=1;entryY=1;entryDx=0;entryDy=0;align=left;" parent="lk23dLZlHlBoguHnwzzX-3" source="lk23dLZlHlBoguHnwzzX-4" target="lk23dLZlHlBoguHnwzzX-4" edge="1">
          <mxGeometry width="50" height="50" relative="1" as="geometry">
            <mxPoint x="-50" y="120" as="sourcePoint" />
            <mxPoint y="70" as="targetPoint" />
          </mxGeometry>
        </mxCell>
        <mxCell id="lk23dLZlHlBoguHnwzzX-6" value="TEXT" style="rounded=0;whiteSpace=wrap;html=1;align=left;" parent="lk23dLZlHlBoguHnwzzX-3" vertex="1">
          <mxGeometry x="160" width="120" height="30" as="geometry" />
        </mxCell>
        <mxCell id="lk23dLZlHlBoguHnwzzX-7" value="" style="group;align=left;" parent="1" vertex="1" connectable="0">
          <mxGeometry x="480" y="540" width="280" height="30" as="geometry" />
        </mxCell>
        <mxCell id="lk23dLZlHlBoguHnwzzX-8" value="description" style="text;html=1;align=left;verticalAlign=middle;whiteSpace=wrap;rounded=0;labelBorderColor=none;" parent="lk23dLZlHlBoguHnwzzX-7" vertex="1">
          <mxGeometry width="280" height="30" as="geometry" />
        </mxCell>
        <mxCell id="lk23dLZlHlBoguHnwzzX-9" value="" style="endArrow=none;html=1;rounded=0;exitX=0;exitY=1;exitDx=0;exitDy=0;entryX=1;entryY=1;entryDx=0;entryDy=0;align=left;" parent="lk23dLZlHlBoguHnwzzX-7" source="lk23dLZlHlBoguHnwzzX-8" target="lk23dLZlHlBoguHnwzzX-8" edge="1">
          <mxGeometry width="50" height="50" relative="1" as="geometry">
            <mxPoint x="-50" y="120" as="sourcePoint" />
            <mxPoint y="70" as="targetPoint" />
          </mxGeometry>
        </mxCell>
        <mxCell id="lk23dLZlHlBoguHnwzzX-10" value="TEXT" style="rounded=0;whiteSpace=wrap;html=1;align=left;" parent="lk23dLZlHlBoguHnwzzX-7" vertex="1">
          <mxGeometry x="160" width="120" height="30" as="geometry" />
        </mxCell>
        <mxCell id="lk23dLZlHlBoguHnwzzX-11" value="" style="group;align=left;" parent="1" vertex="1" connectable="0">
          <mxGeometry x="480" y="570" width="280" height="30" as="geometry" />
        </mxCell>
        <mxCell id="lk23dLZlHlBoguHnwzzX-12" value="owner" style="text;html=1;align=left;verticalAlign=middle;whiteSpace=wrap;rounded=0;labelBorderColor=none;" parent="lk23dLZlHlBoguHnwzzX-11" vertex="1">
          <mxGeometry width="280" height="30" as="geometry" />
        </mxCell>
        <mxCell id="lk23dLZlHlBoguHnwzzX-13" value="" style="endArrow=none;html=1;rounded=0;exitX=0;exitY=1;exitDx=0;exitDy=0;entryX=1;entryY=1;entryDx=0;entryDy=0;align=left;" parent="lk23dLZlHlBoguHnwzzX-11" source="lk23dLZlHlBoguHnwzzX-12" target="lk23dLZlHlBoguHnwzzX-12" edge="1">
          <mxGeometry width="50" height="50" relative="1" as="geometry">
            <mxPoint x="-50" y="120" as="sourcePoint" />
            <mxPoint y="70" as="targetPoint" />
          </mxGeometry>
        </mxCell>
        <mxCell id="lk23dLZlHlBoguHnwzzX-14" value="VARCHAR(255)" style="rounded=0;whiteSpace=wrap;html=1;align=left;" parent="lk23dLZlHlBoguHnwzzX-11" vertex="1">
          <mxGeometry x="160" width="120" height="30" as="geometry" />
        </mxCell>
        <mxCell id="lk23dLZlHlBoguHnwzzX-16" value="" style="edgeStyle=entityRelationEdgeStyle;fontSize=12;html=1;endArrow=ERoneToMany;startArrow=ERmandOne;rounded=0;exitX=1;exitY=0.5;exitDx=0;exitDy=0;entryX=1;entryY=0.5;entryDx=0;entryDy=0;" parent="1" source="YZj0zw7wTLtwygs7arW9-6" target="lk23dLZlHlBoguHnwzzX-12" edge="1">
          <mxGeometry width="100" height="100" relative="1" as="geometry">
            <mxPoint x="770" y="230" as="sourcePoint" />
            <mxPoint x="890" y="865" as="targetPoint" />
            <Array as="points">
              <mxPoint x="860" y="575" />
            </Array>
          </mxGeometry>
        </mxCell>
        <mxCell id="lk23dLZlHlBoguHnwzzX-17" value="" style="group;align=left;" parent="1" vertex="1" connectable="0">
          <mxGeometry x="480" y="600" width="280" height="30" as="geometry" />
        </mxCell>
        <mxCell id="lk23dLZlHlBoguHnwzzX-18" value="start_time" style="text;html=1;align=left;verticalAlign=middle;whiteSpace=wrap;rounded=0;labelBorderColor=none;" parent="lk23dLZlHlBoguHnwzzX-17" vertex="1">
          <mxGeometry width="280" height="30" as="geometry" />
        </mxCell>
        <mxCell id="lk23dLZlHlBoguHnwzzX-19" value="" style="endArrow=none;html=1;rounded=0;exitX=0;exitY=1;exitDx=0;exitDy=0;entryX=1;entryY=1;entryDx=0;entryDy=0;align=left;" parent="lk23dLZlHlBoguHnwzzX-17" source="lk23dLZlHlBoguHnwzzX-18" target="lk23dLZlHlBoguHnwzzX-18" edge="1">
          <mxGeometry width="50" height="50" relative="1" as="geometry">
            <mxPoint x="-50" y="120" as="sourcePoint" />
            <mxPoint y="70" as="targetPoint" />
          </mxGeometry>
        </mxCell>
        <mxCell id="lk23dLZlHlBoguHnwzzX-20" value="TIME" style="rounded=0;whiteSpace=wrap;html=1;align=left;" parent="lk23dLZlHlBoguHnwzzX-17" vertex="1">
          <mxGeometry x="160" width="120" height="30" as="geometry" />
        </mxCell>
        <mxCell id="lk23dLZlHlBoguHnwzzX-21" value="" style="group;align=left;" parent="1" vertex="1" connectable="0">
          <mxGeometry x="480" y="630" width="280" height="30" as="geometry" />
        </mxCell>
        <mxCell id="lk23dLZlHlBoguHnwzzX-22" value="end_time" style="text;html=1;align=left;verticalAlign=middle;whiteSpace=wrap;rounded=0;labelBorderColor=none;" parent="lk23dLZlHlBoguHnwzzX-21" vertex="1">
          <mxGeometry width="280" height="30" as="geometry" />
        </mxCell>
        <mxCell id="lk23dLZlHlBoguHnwzzX-23" value="" style="endArrow=none;html=1;rounded=0;exitX=0;exitY=1;exitDx=0;exitDy=0;entryX=1;entryY=1;entryDx=0;entryDy=0;align=left;" parent="lk23dLZlHlBoguHnwzzX-21" source="lk23dLZlHlBoguHnwzzX-22" target="lk23dLZlHlBoguHnwzzX-22" edge="1">
          <mxGeometry width="50" height="50" relative="1" as="geometry">
            <mxPoint x="-50" y="120" as="sourcePoint" />
            <mxPoint y="70" as="targetPoint" />
          </mxGeometry>
        </mxCell>
        <mxCell id="lk23dLZlHlBoguHnwzzX-24" value="TIME" style="rounded=0;whiteSpace=wrap;html=1;align=left;" parent="lk23dLZlHlBoguHnwzzX-21" vertex="1">
          <mxGeometry x="160" width="120" height="30" as="geometry" />
        </mxCell>
        <mxCell id="lk23dLZlHlBoguHnwzzX-25" value="" style="group;align=left;" parent="1" vertex="1" connectable="0">
          <mxGeometry x="480" y="660" width="280" height="30" as="geometry" />
        </mxCell>
        <mxCell id="lk23dLZlHlBoguHnwzzX-26" value="week_day" style="text;html=1;align=left;verticalAlign=middle;whiteSpace=wrap;rounded=0;labelBorderColor=none;" parent="lk23dLZlHlBoguHnwzzX-25" vertex="1">
          <mxGeometry width="280" height="30" as="geometry" />
        </mxCell>
        <mxCell id="lk23dLZlHlBoguHnwzzX-27" value="" style="endArrow=none;html=1;rounded=0;exitX=0;exitY=1;exitDx=0;exitDy=0;entryX=1;entryY=1;entryDx=0;entryDy=0;align=left;" parent="lk23dLZlHlBoguHnwzzX-25" source="lk23dLZlHlBoguHnwzzX-26" target="lk23dLZlHlBoguHnwzzX-26" edge="1">
          <mxGeometry width="50" height="50" relative="1" as="geometry">
            <mxPoint x="-50" y="120" as="sourcePoint" />
            <mxPoint y="70" as="targetPoint" />
          </mxGeometry>
        </mxCell>
        <mxCell id="lk23dLZlHlBoguHnwzzX-28" value="ENUM" style="rounded=0;whiteSpace=wrap;html=1;align=left;" parent="lk23dLZlHlBoguHnwzzX-25" vertex="1">
          <mxGeometry x="160" width="120" height="30" as="geometry" />
        </mxCell>
        <mxCell id="lk23dLZlHlBoguHnwzzX-29" value="" style="group;align=left;" parent="1" vertex="1" connectable="0">
          <mxGeometry x="480" y="690" width="280" height="30" as="geometry" />
        </mxCell>
        <mxCell id="lk23dLZlHlBoguHnwzzX-30" value="tags" style="text;html=1;align=left;verticalAlign=middle;whiteSpace=wrap;rounded=0;labelBorderColor=none;" parent="lk23dLZlHlBoguHnwzzX-29" vertex="1">
          <mxGeometry width="280" height="30" as="geometry" />
        </mxCell>
        <mxCell id="lk23dLZlHlBoguHnwzzX-31" value="" style="endArrow=none;html=1;rounded=0;exitX=0;exitY=1;exitDx=0;exitDy=0;entryX=1;entryY=1;entryDx=0;entryDy=0;align=left;" parent="lk23dLZlHlBoguHnwzzX-29" source="lk23dLZlHlBoguHnwzzX-30" target="lk23dLZlHlBoguHnwzzX-30" edge="1">
          <mxGeometry width="50" height="50" relative="1" as="geometry">
            <mxPoint x="-50" y="120" as="sourcePoint" />
            <mxPoint y="70" as="targetPoint" />
          </mxGeometry>
        </mxCell>
        <mxCell id="lk23dLZlHlBoguHnwzzX-32" value="TEXT" style="rounded=0;whiteSpace=wrap;html=1;align=left;" parent="lk23dLZlHlBoguHnwzzX-29" vertex="1">
          <mxGeometry x="160" width="120" height="30" as="geometry" />
        </mxCell>
        <mxCell id="bVQpaHKOLJuqv6DI0kXR-1" value="&lt;b&gt;&lt;font style=&quot;font-size: 22px;&quot;&gt;REMIDER_CATE&lt;/font&gt;&lt;/b&gt;" style="rounded=0;whiteSpace=wrap;html=1;align=center;" parent="1" vertex="1">
          <mxGeometry x="1280" y="560" width="280" height="40" as="geometry" />
        </mxCell>
        <mxCell id="bVQpaHKOLJuqv6DI0kXR-2" value="" style="rounded=0;whiteSpace=wrap;html=1;align=left;" parent="1" vertex="1">
          <mxGeometry x="1280" y="600" width="280" height="70" as="geometry" />
        </mxCell>
        <mxCell id="bVQpaHKOLJuqv6DI0kXR-3" value="" style="group;align=left;" parent="1" vertex="1" connectable="0">
          <mxGeometry x="1280" y="600" width="280" height="30" as="geometry" />
        </mxCell>
        <mxCell id="bVQpaHKOLJuqv6DI0kXR-4" value="reminder_id" style="text;html=1;align=left;verticalAlign=middle;whiteSpace=wrap;rounded=0;labelBorderColor=none;" parent="bVQpaHKOLJuqv6DI0kXR-3" vertex="1">
          <mxGeometry width="280" height="30" as="geometry" />
        </mxCell>
        <mxCell id="bVQpaHKOLJuqv6DI0kXR-5" value="" style="endArrow=none;html=1;rounded=0;exitX=0;exitY=1;exitDx=0;exitDy=0;entryX=1;entryY=1;entryDx=0;entryDy=0;align=left;" parent="bVQpaHKOLJuqv6DI0kXR-3" source="bVQpaHKOLJuqv6DI0kXR-4" target="bVQpaHKOLJuqv6DI0kXR-4" edge="1">
          <mxGeometry width="50" height="50" relative="1" as="geometry">
            <mxPoint x="-50" y="120" as="sourcePoint" />
            <mxPoint y="70" as="targetPoint" />
          </mxGeometry>
        </mxCell>
        <mxCell id="bVQpaHKOLJuqv6DI0kXR-6" value="INT" style="rounded=0;whiteSpace=wrap;html=1;align=left;" parent="bVQpaHKOLJuqv6DI0kXR-3" vertex="1">
          <mxGeometry x="160" width="120" height="30" as="geometry" />
        </mxCell>
        <mxCell id="bVQpaHKOLJuqv6DI0kXR-7" value="" style="group;align=left;" parent="1" vertex="1" connectable="0">
          <mxGeometry x="1280" y="630" width="280" height="30" as="geometry" />
        </mxCell>
        <mxCell id="bVQpaHKOLJuqv6DI0kXR-8" value="cate_id" style="text;html=1;align=left;verticalAlign=middle;whiteSpace=wrap;rounded=0;labelBorderColor=none;" parent="bVQpaHKOLJuqv6DI0kXR-7" vertex="1">
          <mxGeometry width="280" height="30" as="geometry" />
        </mxCell>
        <mxCell id="bVQpaHKOLJuqv6DI0kXR-9" value="" style="endArrow=none;html=1;rounded=0;exitX=0;exitY=1;exitDx=0;exitDy=0;entryX=1;entryY=1;entryDx=0;entryDy=0;align=left;" parent="bVQpaHKOLJuqv6DI0kXR-7" source="bVQpaHKOLJuqv6DI0kXR-8" target="bVQpaHKOLJuqv6DI0kXR-8" edge="1">
          <mxGeometry width="50" height="50" relative="1" as="geometry">
            <mxPoint x="-50" y="120" as="sourcePoint" />
            <mxPoint y="70" as="targetPoint" />
          </mxGeometry>
        </mxCell>
        <mxCell id="bVQpaHKOLJuqv6DI0kXR-10" value="ENUM" style="rounded=0;whiteSpace=wrap;html=1;align=left;" parent="bVQpaHKOLJuqv6DI0kXR-7" vertex="1">
          <mxGeometry x="160" width="120" height="30" as="geometry" />
        </mxCell>
        <mxCell id="bVQpaHKOLJuqv6DI0kXR-11" value="" style="edgeStyle=entityRelationEdgeStyle;fontSize=12;html=1;endArrow=ERoneToMany;startArrow=ERmandOne;rounded=0;exitX=1;exitY=0.5;exitDx=0;exitDy=0;entryX=0;entryY=0.5;entryDx=0;entryDy=0;" parent="1" source="pU_csxRjSMOdD0A7SyPA-4" target="VDlrK9HROH-bXT8Rcj3w-26" edge="1">
          <mxGeometry width="100" height="100" relative="1" as="geometry">
            <mxPoint x="1300" y="295" as="sourcePoint" />
            <mxPoint x="1420" y="540" as="targetPoint" />
          </mxGeometry>
        </mxCell>
        <mxCell id="bVQpaHKOLJuqv6DI0kXR-12" value="" style="edgeStyle=entityRelationEdgeStyle;fontSize=12;html=1;endArrow=ERoneToMany;startArrow=ERmandOne;rounded=0;exitX=1;exitY=0.5;exitDx=0;exitDy=0;entryX=0;entryY=0.5;entryDx=0;entryDy=0;" parent="1" source="DcZ_CSGGjANzheqNLnKH-26" target="bVQpaHKOLJuqv6DI0kXR-4" edge="1">
          <mxGeometry width="100" height="100" relative="1" as="geometry">
            <mxPoint x="1170" y="225" as="sourcePoint" />
            <mxPoint x="1290" y="625" as="targetPoint" />
          </mxGeometry>
        </mxCell>
        <mxCell id="bVQpaHKOLJuqv6DI0kXR-13" value="&lt;b&gt;&lt;font style=&quot;font-size: 22px;&quot;&gt;HABIT_CATE&lt;/font&gt;&lt;/b&gt;" style="rounded=0;whiteSpace=wrap;html=1;align=center;" parent="1" vertex="1">
          <mxGeometry x="80" y="440" width="280" height="40" as="geometry" />
        </mxCell>
        <mxCell id="bVQpaHKOLJuqv6DI0kXR-14" value="" style="rounded=0;whiteSpace=wrap;html=1;align=left;" parent="1" vertex="1">
          <mxGeometry x="80" y="480" width="280" height="70" as="geometry" />
        </mxCell>
        <mxCell id="bVQpaHKOLJuqv6DI0kXR-15" value="" style="group;align=left;" parent="1" vertex="1" connectable="0">
          <mxGeometry x="80" y="480" width="280" height="30" as="geometry" />
        </mxCell>
        <mxCell id="bVQpaHKOLJuqv6DI0kXR-16" value="habit_id" style="text;html=1;align=left;verticalAlign=middle;whiteSpace=wrap;rounded=0;labelBorderColor=none;" parent="bVQpaHKOLJuqv6DI0kXR-15" vertex="1">
          <mxGeometry width="280" height="30" as="geometry" />
        </mxCell>
        <mxCell id="bVQpaHKOLJuqv6DI0kXR-17" value="" style="endArrow=none;html=1;rounded=0;exitX=0;exitY=1;exitDx=0;exitDy=0;entryX=1;entryY=1;entryDx=0;entryDy=0;align=left;" parent="bVQpaHKOLJuqv6DI0kXR-15" source="bVQpaHKOLJuqv6DI0kXR-16" target="bVQpaHKOLJuqv6DI0kXR-16" edge="1">
          <mxGeometry width="50" height="50" relative="1" as="geometry">
            <mxPoint x="-50" y="120" as="sourcePoint" />
            <mxPoint y="70" as="targetPoint" />
          </mxGeometry>
        </mxCell>
        <mxCell id="bVQpaHKOLJuqv6DI0kXR-18" value="INT" style="rounded=0;whiteSpace=wrap;html=1;align=left;" parent="bVQpaHKOLJuqv6DI0kXR-15" vertex="1">
          <mxGeometry x="160" width="120" height="30" as="geometry" />
        </mxCell>
        <mxCell id="bVQpaHKOLJuqv6DI0kXR-19" value="" style="group;align=left;" parent="1" vertex="1" connectable="0">
          <mxGeometry x="80" y="510" width="280" height="30" as="geometry" />
        </mxCell>
        <mxCell id="bVQpaHKOLJuqv6DI0kXR-20" value="cate_id" style="text;html=1;align=left;verticalAlign=middle;whiteSpace=wrap;rounded=0;labelBorderColor=none;" parent="bVQpaHKOLJuqv6DI0kXR-19" vertex="1">
          <mxGeometry width="280" height="30" as="geometry" />
        </mxCell>
        <mxCell id="bVQpaHKOLJuqv6DI0kXR-21" value="" style="endArrow=none;html=1;rounded=0;exitX=0;exitY=1;exitDx=0;exitDy=0;entryX=1;entryY=1;entryDx=0;entryDy=0;align=left;" parent="bVQpaHKOLJuqv6DI0kXR-19" source="bVQpaHKOLJuqv6DI0kXR-20" target="bVQpaHKOLJuqv6DI0kXR-20" edge="1">
          <mxGeometry width="50" height="50" relative="1" as="geometry">
            <mxPoint x="-50" y="120" as="sourcePoint" />
            <mxPoint y="70" as="targetPoint" />
          </mxGeometry>
        </mxCell>
        <mxCell id="bVQpaHKOLJuqv6DI0kXR-22" value="ENUM" style="rounded=0;whiteSpace=wrap;html=1;align=left;" parent="bVQpaHKOLJuqv6DI0kXR-19" vertex="1">
          <mxGeometry x="160" width="120" height="30" as="geometry" />
        </mxCell>
        <mxCell id="bVQpaHKOLJuqv6DI0kXR-23" value="" style="edgeStyle=entityRelationEdgeStyle;fontSize=12;html=1;endArrow=ERoneToMany;startArrow=ERmandOne;rounded=0;exitX=0;exitY=0.5;exitDx=0;exitDy=0;entryX=1;entryY=0.5;entryDx=0;entryDy=0;" parent="1" source="DcZ_CSGGjANzheqNLnKH-4" target="bVQpaHKOLJuqv6DI0kXR-16" edge="1">
          <mxGeometry width="100" height="100" relative="1" as="geometry">
            <mxPoint x="320" y="362.5" as="sourcePoint" />
            <mxPoint x="440" y="607.5" as="targetPoint" />
          </mxGeometry>
        </mxCell>
        <mxCell id="VDlrK9HROH-bXT8Rcj3w-1" value="&lt;b&gt;&lt;font style=&quot;font-size: 22px;&quot;&gt;SCH_REMINDER_JOB&lt;/font&gt;&lt;/b&gt;" style="rounded=0;whiteSpace=wrap;html=1;align=center;" parent="1" vertex="1">
          <mxGeometry x="1280" y="320" width="280" height="40" as="geometry" />
        </mxCell>
        <mxCell id="VDlrK9HROH-bXT8Rcj3w-2" value="" style="rounded=0;whiteSpace=wrap;html=1;align=left;" parent="1" vertex="1">
          <mxGeometry x="1280" y="360" width="280" height="130" as="geometry" />
        </mxCell>
        <mxCell id="VDlrK9HROH-bXT8Rcj3w-3" value="" style="group;align=left;" parent="1" vertex="1" connectable="0">
          <mxGeometry x="1280" y="360" width="280" height="30" as="geometry" />
        </mxCell>
        <mxCell id="VDlrK9HROH-bXT8Rcj3w-4" value="job_id" style="text;html=1;align=left;verticalAlign=middle;whiteSpace=wrap;rounded=0;labelBorderColor=none;" parent="VDlrK9HROH-bXT8Rcj3w-3" vertex="1">
          <mxGeometry width="280" height="30" as="geometry" />
        </mxCell>
        <mxCell id="VDlrK9HROH-bXT8Rcj3w-5" value="" style="endArrow=none;html=1;rounded=0;exitX=0;exitY=1;exitDx=0;exitDy=0;entryX=1;entryY=1;entryDx=0;entryDy=0;align=left;" parent="VDlrK9HROH-bXT8Rcj3w-3" source="VDlrK9HROH-bXT8Rcj3w-4" target="VDlrK9HROH-bXT8Rcj3w-4" edge="1">
          <mxGeometry width="50" height="50" relative="1" as="geometry">
            <mxPoint x="-50" y="120" as="sourcePoint" />
            <mxPoint y="70" as="targetPoint" />
          </mxGeometry>
        </mxCell>
        <mxCell id="VDlrK9HROH-bXT8Rcj3w-6" value="AUTO_INCR" style="rounded=0;whiteSpace=wrap;html=1;align=left;" parent="VDlrK9HROH-bXT8Rcj3w-3" vertex="1">
          <mxGeometry x="160" width="120" height="30" as="geometry" />
        </mxCell>
        <mxCell id="VDlrK9HROH-bXT8Rcj3w-7" value="" style="group;align=left;" parent="1" vertex="1" connectable="0">
          <mxGeometry x="1280" y="390" width="280" height="30" as="geometry" />
        </mxCell>
        <mxCell id="VDlrK9HROH-bXT8Rcj3w-8" value="title" style="text;html=1;align=left;verticalAlign=middle;whiteSpace=wrap;rounded=0;labelBorderColor=none;" parent="VDlrK9HROH-bXT8Rcj3w-7" vertex="1">
          <mxGeometry width="280" height="30" as="geometry" />
        </mxCell>
        <mxCell id="VDlrK9HROH-bXT8Rcj3w-9" value="" style="endArrow=none;html=1;rounded=0;exitX=0;exitY=1;exitDx=0;exitDy=0;entryX=1;entryY=1;entryDx=0;entryDy=0;align=left;" parent="VDlrK9HROH-bXT8Rcj3w-7" source="VDlrK9HROH-bXT8Rcj3w-8" target="VDlrK9HROH-bXT8Rcj3w-8" edge="1">
          <mxGeometry width="50" height="50" relative="1" as="geometry">
            <mxPoint x="-50" y="120" as="sourcePoint" />
            <mxPoint y="70" as="targetPoint" />
          </mxGeometry>
        </mxCell>
        <mxCell id="VDlrK9HROH-bXT8Rcj3w-10" value="TEXT" style="rounded=0;whiteSpace=wrap;html=1;align=left;" parent="VDlrK9HROH-bXT8Rcj3w-7" vertex="1">
          <mxGeometry x="160" width="120" height="30" as="geometry" />
        </mxCell>
        <mxCell id="VDlrK9HROH-bXT8Rcj3w-15" value="" style="group;align=left;" parent="1" vertex="1" connectable="0">
          <mxGeometry x="1280" y="420" width="280" height="30" as="geometry" />
        </mxCell>
        <mxCell id="VDlrK9HROH-bXT8Rcj3w-16" value="description" style="text;html=1;align=left;verticalAlign=middle;whiteSpace=wrap;rounded=0;labelBorderColor=none;" parent="VDlrK9HROH-bXT8Rcj3w-15" vertex="1">
          <mxGeometry width="280" height="30" as="geometry" />
        </mxCell>
        <mxCell id="VDlrK9HROH-bXT8Rcj3w-17" value="" style="endArrow=none;html=1;rounded=0;exitX=0;exitY=1;exitDx=0;exitDy=0;entryX=1;entryY=1;entryDx=0;entryDy=0;align=left;" parent="VDlrK9HROH-bXT8Rcj3w-15" source="VDlrK9HROH-bXT8Rcj3w-16" target="VDlrK9HROH-bXT8Rcj3w-16" edge="1">
          <mxGeometry width="50" height="50" relative="1" as="geometry">
            <mxPoint x="-50" y="120" as="sourcePoint" />
            <mxPoint y="70" as="targetPoint" />
          </mxGeometry>
        </mxCell>
        <mxCell id="VDlrK9HROH-bXT8Rcj3w-18" value="TEXT" style="rounded=0;whiteSpace=wrap;html=1;align=left;" parent="VDlrK9HROH-bXT8Rcj3w-15" vertex="1">
          <mxGeometry x="160" width="120" height="30" as="geometry" />
        </mxCell>
        <mxCell id="VDlrK9HROH-bXT8Rcj3w-23" value="&lt;b&gt;&lt;font style=&quot;font-size: 22px;&quot;&gt;SCH_REMIDER_CATE&lt;/font&gt;&lt;/b&gt;" style="rounded=0;whiteSpace=wrap;html=1;align=center;" parent="1" vertex="1">
          <mxGeometry x="1280" y="160" width="280" height="40" as="geometry" />
        </mxCell>
        <mxCell id="VDlrK9HROH-bXT8Rcj3w-24" value="" style="rounded=0;whiteSpace=wrap;html=1;align=left;" parent="1" vertex="1">
          <mxGeometry x="1280" y="200" width="280" height="70" as="geometry" />
        </mxCell>
        <mxCell id="VDlrK9HROH-bXT8Rcj3w-25" value="" style="group;align=left;" parent="1" vertex="1" connectable="0">
          <mxGeometry x="1280" y="200" width="280" height="30" as="geometry" />
        </mxCell>
        <mxCell id="VDlrK9HROH-bXT8Rcj3w-26" value="reminder_id" style="text;html=1;align=left;verticalAlign=middle;whiteSpace=wrap;rounded=0;labelBorderColor=none;" parent="VDlrK9HROH-bXT8Rcj3w-25" vertex="1">
          <mxGeometry width="280" height="30" as="geometry" />
        </mxCell>
        <mxCell id="VDlrK9HROH-bXT8Rcj3w-27" value="" style="endArrow=none;html=1;rounded=0;exitX=0;exitY=1;exitDx=0;exitDy=0;entryX=1;entryY=1;entryDx=0;entryDy=0;align=left;" parent="VDlrK9HROH-bXT8Rcj3w-25" source="VDlrK9HROH-bXT8Rcj3w-26" target="VDlrK9HROH-bXT8Rcj3w-26" edge="1">
          <mxGeometry width="50" height="50" relative="1" as="geometry">
            <mxPoint x="-50" y="120" as="sourcePoint" />
            <mxPoint y="70" as="targetPoint" />
          </mxGeometry>
        </mxCell>
        <mxCell id="VDlrK9HROH-bXT8Rcj3w-28" value="INT" style="rounded=0;whiteSpace=wrap;html=1;align=left;" parent="VDlrK9HROH-bXT8Rcj3w-25" vertex="1">
          <mxGeometry x="160" width="120" height="30" as="geometry" />
        </mxCell>
        <mxCell id="VDlrK9HROH-bXT8Rcj3w-29" value="" style="group;align=left;" parent="1" vertex="1" connectable="0">
          <mxGeometry x="1280" y="230" width="280" height="30" as="geometry" />
        </mxCell>
        <mxCell id="VDlrK9HROH-bXT8Rcj3w-30" value="cate_id" style="text;html=1;align=left;verticalAlign=middle;whiteSpace=wrap;rounded=0;labelBorderColor=none;" parent="VDlrK9HROH-bXT8Rcj3w-29" vertex="1">
          <mxGeometry width="280" height="30" as="geometry" />
        </mxCell>
        <mxCell id="VDlrK9HROH-bXT8Rcj3w-31" value="" style="endArrow=none;html=1;rounded=0;exitX=0;exitY=1;exitDx=0;exitDy=0;entryX=1;entryY=1;entryDx=0;entryDy=0;align=left;" parent="VDlrK9HROH-bXT8Rcj3w-29" source="VDlrK9HROH-bXT8Rcj3w-30" target="VDlrK9HROH-bXT8Rcj3w-30" edge="1">
          <mxGeometry width="50" height="50" relative="1" as="geometry">
            <mxPoint x="-50" y="120" as="sourcePoint" />
            <mxPoint y="70" as="targetPoint" />
          </mxGeometry>
        </mxCell>
        <mxCell id="VDlrK9HROH-bXT8Rcj3w-32" value="ENUM" style="rounded=0;whiteSpace=wrap;html=1;align=left;" parent="VDlrK9HROH-bXT8Rcj3w-29" vertex="1">
          <mxGeometry x="160" width="120" height="30" as="geometry" />
        </mxCell>
        <mxCell id="VDlrK9HROH-bXT8Rcj3w-33" value="&lt;b&gt;&lt;font style=&quot;font-size: 20px;&quot;&gt;SCH_REMIDER_JOB_CATE&lt;/font&gt;&lt;/b&gt;" style="rounded=0;whiteSpace=wrap;html=1;align=center;" parent="1" vertex="1">
          <mxGeometry x="1680" y="320" width="280" height="40" as="geometry" />
        </mxCell>
        <mxCell id="VDlrK9HROH-bXT8Rcj3w-34" value="" style="rounded=0;whiteSpace=wrap;html=1;align=left;" parent="1" vertex="1">
          <mxGeometry x="1680" y="360" width="280" height="70" as="geometry" />
        </mxCell>
        <mxCell id="VDlrK9HROH-bXT8Rcj3w-35" value="" style="group;align=left;" parent="1" vertex="1" connectable="0">
          <mxGeometry x="1680" y="360" width="280" height="30" as="geometry" />
        </mxCell>
        <mxCell id="VDlrK9HROH-bXT8Rcj3w-36" value="job_id" style="text;html=1;align=left;verticalAlign=middle;whiteSpace=wrap;rounded=0;labelBorderColor=none;" parent="VDlrK9HROH-bXT8Rcj3w-35" vertex="1">
          <mxGeometry width="280" height="30" as="geometry" />
        </mxCell>
        <mxCell id="VDlrK9HROH-bXT8Rcj3w-37" value="" style="endArrow=none;html=1;rounded=0;exitX=0;exitY=1;exitDx=0;exitDy=0;entryX=1;entryY=1;entryDx=0;entryDy=0;align=left;" parent="VDlrK9HROH-bXT8Rcj3w-35" source="VDlrK9HROH-bXT8Rcj3w-36" target="VDlrK9HROH-bXT8Rcj3w-36" edge="1">
          <mxGeometry width="50" height="50" relative="1" as="geometry">
            <mxPoint x="-50" y="120" as="sourcePoint" />
            <mxPoint y="70" as="targetPoint" />
          </mxGeometry>
        </mxCell>
        <mxCell id="VDlrK9HROH-bXT8Rcj3w-38" value="INT" style="rounded=0;whiteSpace=wrap;html=1;align=left;" parent="VDlrK9HROH-bXT8Rcj3w-35" vertex="1">
          <mxGeometry x="160" width="120" height="30" as="geometry" />
        </mxCell>
        <mxCell id="VDlrK9HROH-bXT8Rcj3w-39" value="" style="group;align=left;" parent="1" vertex="1" connectable="0">
          <mxGeometry x="1680" y="390" width="280" height="30" as="geometry" />
        </mxCell>
        <mxCell id="VDlrK9HROH-bXT8Rcj3w-40" value="cate_id" style="text;html=1;align=left;verticalAlign=middle;whiteSpace=wrap;rounded=0;labelBorderColor=none;" parent="VDlrK9HROH-bXT8Rcj3w-39" vertex="1">
          <mxGeometry width="280" height="30" as="geometry" />
        </mxCell>
        <mxCell id="VDlrK9HROH-bXT8Rcj3w-41" value="" style="endArrow=none;html=1;rounded=0;exitX=0;exitY=1;exitDx=0;exitDy=0;entryX=1;entryY=1;entryDx=0;entryDy=0;align=left;" parent="VDlrK9HROH-bXT8Rcj3w-39" source="VDlrK9HROH-bXT8Rcj3w-40" target="VDlrK9HROH-bXT8Rcj3w-40" edge="1">
          <mxGeometry width="50" height="50" relative="1" as="geometry">
            <mxPoint x="-50" y="120" as="sourcePoint" />
            <mxPoint y="70" as="targetPoint" />
          </mxGeometry>
        </mxCell>
        <mxCell id="VDlrK9HROH-bXT8Rcj3w-42" value="ENUM" style="rounded=0;whiteSpace=wrap;html=1;align=left;" parent="VDlrK9HROH-bXT8Rcj3w-39" vertex="1">
          <mxGeometry x="160" width="120" height="30" as="geometry" />
        </mxCell>
        <mxCell id="VDlrK9HROH-bXT8Rcj3w-45" value="&lt;b&gt;&lt;font style=&quot;font-size: 22px;&quot;&gt;REMINDER_JOB&lt;/font&gt;&lt;/b&gt;" style="rounded=0;whiteSpace=wrap;html=1;align=center;" parent="1" vertex="1">
          <mxGeometry x="1280" y="720" width="280" height="40" as="geometry" />
        </mxCell>
        <mxCell id="VDlrK9HROH-bXT8Rcj3w-46" value="" style="rounded=0;whiteSpace=wrap;html=1;align=left;" parent="1" vertex="1">
          <mxGeometry x="1280" y="760" width="280" height="130" as="geometry" />
        </mxCell>
        <mxCell id="VDlrK9HROH-bXT8Rcj3w-47" value="" style="group;align=left;" parent="1" vertex="1" connectable="0">
          <mxGeometry x="1280" y="760" width="280" height="30" as="geometry" />
        </mxCell>
        <mxCell id="VDlrK9HROH-bXT8Rcj3w-48" value="job_id" style="text;html=1;align=left;verticalAlign=middle;whiteSpace=wrap;rounded=0;labelBorderColor=none;" parent="VDlrK9HROH-bXT8Rcj3w-47" vertex="1">
          <mxGeometry width="280" height="30" as="geometry" />
        </mxCell>
        <mxCell id="VDlrK9HROH-bXT8Rcj3w-49" value="" style="endArrow=none;html=1;rounded=0;exitX=0;exitY=1;exitDx=0;exitDy=0;entryX=1;entryY=1;entryDx=0;entryDy=0;align=left;" parent="VDlrK9HROH-bXT8Rcj3w-47" source="VDlrK9HROH-bXT8Rcj3w-48" target="VDlrK9HROH-bXT8Rcj3w-48" edge="1">
          <mxGeometry width="50" height="50" relative="1" as="geometry">
            <mxPoint x="-50" y="120" as="sourcePoint" />
            <mxPoint y="70" as="targetPoint" />
          </mxGeometry>
        </mxCell>
        <mxCell id="VDlrK9HROH-bXT8Rcj3w-50" value="AUTO_INCR" style="rounded=0;whiteSpace=wrap;html=1;align=left;" parent="VDlrK9HROH-bXT8Rcj3w-47" vertex="1">
          <mxGeometry x="160" width="120" height="30" as="geometry" />
        </mxCell>
        <mxCell id="VDlrK9HROH-bXT8Rcj3w-51" value="" style="group;align=left;" parent="1" vertex="1" connectable="0">
          <mxGeometry x="1280" y="790" width="280" height="30" as="geometry" />
        </mxCell>
        <mxCell id="VDlrK9HROH-bXT8Rcj3w-52" value="title" style="text;html=1;align=left;verticalAlign=middle;whiteSpace=wrap;rounded=0;labelBorderColor=none;" parent="VDlrK9HROH-bXT8Rcj3w-51" vertex="1">
          <mxGeometry width="280" height="30" as="geometry" />
        </mxCell>
        <mxCell id="VDlrK9HROH-bXT8Rcj3w-53" value="" style="endArrow=none;html=1;rounded=0;exitX=0;exitY=1;exitDx=0;exitDy=0;entryX=1;entryY=1;entryDx=0;entryDy=0;align=left;" parent="VDlrK9HROH-bXT8Rcj3w-51" source="VDlrK9HROH-bXT8Rcj3w-52" target="VDlrK9HROH-bXT8Rcj3w-52" edge="1">
          <mxGeometry width="50" height="50" relative="1" as="geometry">
            <mxPoint x="-50" y="120" as="sourcePoint" />
            <mxPoint y="70" as="targetPoint" />
          </mxGeometry>
        </mxCell>
        <mxCell id="VDlrK9HROH-bXT8Rcj3w-54" value="TEXT" style="rounded=0;whiteSpace=wrap;html=1;align=left;" parent="VDlrK9HROH-bXT8Rcj3w-51" vertex="1">
          <mxGeometry x="160" width="120" height="30" as="geometry" />
        </mxCell>
        <mxCell id="VDlrK9HROH-bXT8Rcj3w-55" value="" style="group;align=left;" parent="1" vertex="1" connectable="0">
          <mxGeometry x="1280" y="820" width="280" height="30" as="geometry" />
        </mxCell>
        <mxCell id="VDlrK9HROH-bXT8Rcj3w-56" value="description" style="text;html=1;align=left;verticalAlign=middle;whiteSpace=wrap;rounded=0;labelBorderColor=none;" parent="VDlrK9HROH-bXT8Rcj3w-55" vertex="1">
          <mxGeometry width="280" height="30" as="geometry" />
        </mxCell>
        <mxCell id="VDlrK9HROH-bXT8Rcj3w-57" value="" style="endArrow=none;html=1;rounded=0;exitX=0;exitY=1;exitDx=0;exitDy=0;entryX=1;entryY=1;entryDx=0;entryDy=0;align=left;" parent="VDlrK9HROH-bXT8Rcj3w-55" source="VDlrK9HROH-bXT8Rcj3w-56" target="VDlrK9HROH-bXT8Rcj3w-56" edge="1">
          <mxGeometry width="50" height="50" relative="1" as="geometry">
            <mxPoint x="-50" y="120" as="sourcePoint" />
            <mxPoint y="70" as="targetPoint" />
          </mxGeometry>
        </mxCell>
        <mxCell id="VDlrK9HROH-bXT8Rcj3w-58" value="TEXT" style="rounded=0;whiteSpace=wrap;html=1;align=left;" parent="VDlrK9HROH-bXT8Rcj3w-55" vertex="1">
          <mxGeometry x="160" width="120" height="30" as="geometry" />
        </mxCell>
        <mxCell id="VDlrK9HROH-bXT8Rcj3w-59" value="&lt;b&gt;&lt;font style=&quot;font-size: 20px;&quot;&gt;REMIDER_JOB_CATE&lt;/font&gt;&lt;/b&gt;" style="rounded=0;whiteSpace=wrap;html=1;align=center;" parent="1" vertex="1">
          <mxGeometry x="1680" y="720" width="280" height="40" as="geometry" />
        </mxCell>
        <mxCell id="VDlrK9HROH-bXT8Rcj3w-60" value="" style="rounded=0;whiteSpace=wrap;html=1;align=left;" parent="1" vertex="1">
          <mxGeometry x="1680" y="760" width="280" height="70" as="geometry" />
        </mxCell>
        <mxCell id="VDlrK9HROH-bXT8Rcj3w-61" value="" style="group;align=left;" parent="1" vertex="1" connectable="0">
          <mxGeometry x="1680" y="760" width="280" height="30" as="geometry" />
        </mxCell>
        <mxCell id="VDlrK9HROH-bXT8Rcj3w-62" value="job_id" style="text;html=1;align=left;verticalAlign=middle;whiteSpace=wrap;rounded=0;labelBorderColor=none;" parent="VDlrK9HROH-bXT8Rcj3w-61" vertex="1">
          <mxGeometry width="280" height="30" as="geometry" />
        </mxCell>
        <mxCell id="VDlrK9HROH-bXT8Rcj3w-63" value="" style="endArrow=none;html=1;rounded=0;exitX=0;exitY=1;exitDx=0;exitDy=0;entryX=1;entryY=1;entryDx=0;entryDy=0;align=left;" parent="VDlrK9HROH-bXT8Rcj3w-61" source="VDlrK9HROH-bXT8Rcj3w-62" target="VDlrK9HROH-bXT8Rcj3w-62" edge="1">
          <mxGeometry width="50" height="50" relative="1" as="geometry">
            <mxPoint x="-50" y="120" as="sourcePoint" />
            <mxPoint y="70" as="targetPoint" />
          </mxGeometry>
        </mxCell>
        <mxCell id="VDlrK9HROH-bXT8Rcj3w-64" value="INT" style="rounded=0;whiteSpace=wrap;html=1;align=left;" parent="VDlrK9HROH-bXT8Rcj3w-61" vertex="1">
          <mxGeometry x="160" width="120" height="30" as="geometry" />
        </mxCell>
        <mxCell id="VDlrK9HROH-bXT8Rcj3w-65" value="" style="group;align=left;" parent="1" vertex="1" connectable="0">
          <mxGeometry x="1680" y="790" width="280" height="30" as="geometry" />
        </mxCell>
        <mxCell id="VDlrK9HROH-bXT8Rcj3w-66" value="cate_id" style="text;html=1;align=left;verticalAlign=middle;whiteSpace=wrap;rounded=0;labelBorderColor=none;" parent="VDlrK9HROH-bXT8Rcj3w-65" vertex="1">
          <mxGeometry width="280" height="30" as="geometry" />
        </mxCell>
        <mxCell id="VDlrK9HROH-bXT8Rcj3w-67" value="" style="endArrow=none;html=1;rounded=0;exitX=0;exitY=1;exitDx=0;exitDy=0;entryX=1;entryY=1;entryDx=0;entryDy=0;align=left;" parent="VDlrK9HROH-bXT8Rcj3w-65" source="VDlrK9HROH-bXT8Rcj3w-66" target="VDlrK9HROH-bXT8Rcj3w-66" edge="1">
          <mxGeometry width="50" height="50" relative="1" as="geometry">
            <mxPoint x="-50" y="120" as="sourcePoint" />
            <mxPoint y="70" as="targetPoint" />
          </mxGeometry>
        </mxCell>
        <mxCell id="VDlrK9HROH-bXT8Rcj3w-68" value="ENUM" style="rounded=0;whiteSpace=wrap;html=1;align=left;" parent="VDlrK9HROH-bXT8Rcj3w-65" vertex="1">
          <mxGeometry x="160" width="120" height="30" as="geometry" />
        </mxCell>
        <mxCell id="VDlrK9HROH-bXT8Rcj3w-70" value="" style="group;align=left;" parent="1" vertex="1" connectable="0">
          <mxGeometry x="1280" y="450" width="280" height="30" as="geometry" />
        </mxCell>
        <mxCell id="VDlrK9HROH-bXT8Rcj3w-71" value="reminder_id" style="text;html=1;align=left;verticalAlign=middle;whiteSpace=wrap;rounded=0;labelBorderColor=none;" parent="VDlrK9HROH-bXT8Rcj3w-70" vertex="1">
          <mxGeometry width="280" height="30" as="geometry" />
        </mxCell>
        <mxCell id="VDlrK9HROH-bXT8Rcj3w-72" value="" style="endArrow=none;html=1;rounded=0;exitX=0;exitY=1;exitDx=0;exitDy=0;entryX=1;entryY=1;entryDx=0;entryDy=0;align=left;" parent="VDlrK9HROH-bXT8Rcj3w-70" source="VDlrK9HROH-bXT8Rcj3w-71" target="VDlrK9HROH-bXT8Rcj3w-71" edge="1">
          <mxGeometry width="50" height="50" relative="1" as="geometry">
            <mxPoint x="-50" y="120" as="sourcePoint" />
            <mxPoint y="70" as="targetPoint" />
          </mxGeometry>
        </mxCell>
        <mxCell id="VDlrK9HROH-bXT8Rcj3w-73" value="INT" style="rounded=0;whiteSpace=wrap;html=1;align=left;" parent="VDlrK9HROH-bXT8Rcj3w-70" vertex="1">
          <mxGeometry x="160" width="120" height="30" as="geometry" />
        </mxCell>
        <mxCell id="VDlrK9HROH-bXT8Rcj3w-76" value="" style="group;align=left;" parent="1" vertex="1" connectable="0">
          <mxGeometry x="1280" y="850" width="280" height="30" as="geometry" />
        </mxCell>
        <mxCell id="VDlrK9HROH-bXT8Rcj3w-77" value="reminder_id" style="text;html=1;align=left;verticalAlign=middle;whiteSpace=wrap;rounded=0;labelBorderColor=none;" parent="VDlrK9HROH-bXT8Rcj3w-76" vertex="1">
          <mxGeometry width="280" height="30" as="geometry" />
        </mxCell>
        <mxCell id="VDlrK9HROH-bXT8Rcj3w-78" value="" style="endArrow=none;html=1;rounded=0;exitX=0;exitY=1;exitDx=0;exitDy=0;entryX=1;entryY=1;entryDx=0;entryDy=0;align=left;" parent="VDlrK9HROH-bXT8Rcj3w-76" source="VDlrK9HROH-bXT8Rcj3w-77" target="VDlrK9HROH-bXT8Rcj3w-77" edge="1">
          <mxGeometry width="50" height="50" relative="1" as="geometry">
            <mxPoint x="-50" y="120" as="sourcePoint" />
            <mxPoint y="70" as="targetPoint" />
          </mxGeometry>
        </mxCell>
        <mxCell id="VDlrK9HROH-bXT8Rcj3w-79" value="INT" style="rounded=0;whiteSpace=wrap;html=1;align=left;" parent="VDlrK9HROH-bXT8Rcj3w-76" vertex="1">
          <mxGeometry x="160" width="120" height="30" as="geometry" />
        </mxCell>
        <mxCell id="VDlrK9HROH-bXT8Rcj3w-80" value="" style="edgeStyle=entityRelationEdgeStyle;fontSize=12;html=1;endArrow=ERoneToMany;startArrow=ERmandOne;rounded=0;exitX=1;exitY=0.5;exitDx=0;exitDy=0;entryX=0;entryY=0.5;entryDx=0;entryDy=0;" parent="1" source="VDlrK9HROH-bXT8Rcj3w-4" target="VDlrK9HROH-bXT8Rcj3w-36" edge="1">
          <mxGeometry width="100" height="100" relative="1" as="geometry">
            <mxPoint x="1600" y="394" as="sourcePoint" />
            <mxPoint x="1720" y="636" as="targetPoint" />
          </mxGeometry>
        </mxCell>
        <mxCell id="VDlrK9HROH-bXT8Rcj3w-81" value="" style="edgeStyle=entityRelationEdgeStyle;fontSize=12;html=1;endArrow=ERoneToMany;startArrow=ERmandOne;rounded=0;exitX=1;exitY=0.5;exitDx=0;exitDy=0;entryX=0;entryY=0.5;entryDx=0;entryDy=0;" parent="1" source="VDlrK9HROH-bXT8Rcj3w-48" target="VDlrK9HROH-bXT8Rcj3w-62" edge="1">
          <mxGeometry width="100" height="100" relative="1" as="geometry">
            <mxPoint x="1680" y="608" as="sourcePoint" />
            <mxPoint x="1800" y="850" as="targetPoint" />
          </mxGeometry>
        </mxCell>
        <mxCell id="VDlrK9HROH-bXT8Rcj3w-82" value="&lt;b&gt;&lt;font style=&quot;font-size: 22px;&quot;&gt;HABIT_JOB&lt;/font&gt;&lt;/b&gt;" style="rounded=0;whiteSpace=wrap;html=1;align=center;" parent="1" vertex="1">
          <mxGeometry x="80" y="600" width="280" height="40" as="geometry" />
        </mxCell>
        <mxCell id="VDlrK9HROH-bXT8Rcj3w-83" value="" style="rounded=0;whiteSpace=wrap;html=1;align=left;" parent="1" vertex="1">
          <mxGeometry x="80" y="640" width="280" height="130" as="geometry" />
        </mxCell>
        <mxCell id="VDlrK9HROH-bXT8Rcj3w-84" value="" style="group;align=left;" parent="1" vertex="1" connectable="0">
          <mxGeometry x="80" y="640" width="280" height="30" as="geometry" />
        </mxCell>
        <mxCell id="VDlrK9HROH-bXT8Rcj3w-85" value="job_id" style="text;html=1;align=left;verticalAlign=middle;whiteSpace=wrap;rounded=0;labelBorderColor=none;" parent="VDlrK9HROH-bXT8Rcj3w-84" vertex="1">
          <mxGeometry width="280" height="30" as="geometry" />
        </mxCell>
        <mxCell id="VDlrK9HROH-bXT8Rcj3w-86" value="" style="endArrow=none;html=1;rounded=0;exitX=0;exitY=1;exitDx=0;exitDy=0;entryX=1;entryY=1;entryDx=0;entryDy=0;align=left;" parent="VDlrK9HROH-bXT8Rcj3w-84" source="VDlrK9HROH-bXT8Rcj3w-85" target="VDlrK9HROH-bXT8Rcj3w-85" edge="1">
          <mxGeometry width="50" height="50" relative="1" as="geometry">
            <mxPoint x="-50" y="120" as="sourcePoint" />
            <mxPoint y="70" as="targetPoint" />
          </mxGeometry>
        </mxCell>
        <mxCell id="VDlrK9HROH-bXT8Rcj3w-87" value="AUTO_INCR" style="rounded=0;whiteSpace=wrap;html=1;align=left;" parent="VDlrK9HROH-bXT8Rcj3w-84" vertex="1">
          <mxGeometry x="160" width="120" height="30" as="geometry" />
        </mxCell>
        <mxCell id="VDlrK9HROH-bXT8Rcj3w-88" value="" style="group;align=left;" parent="1" vertex="1" connectable="0">
          <mxGeometry x="80" y="670" width="280" height="30" as="geometry" />
        </mxCell>
        <mxCell id="VDlrK9HROH-bXT8Rcj3w-89" value="title" style="text;html=1;align=left;verticalAlign=middle;whiteSpace=wrap;rounded=0;labelBorderColor=none;" parent="VDlrK9HROH-bXT8Rcj3w-88" vertex="1">
          <mxGeometry width="280" height="30" as="geometry" />
        </mxCell>
        <mxCell id="VDlrK9HROH-bXT8Rcj3w-90" value="" style="endArrow=none;html=1;rounded=0;exitX=0;exitY=1;exitDx=0;exitDy=0;entryX=1;entryY=1;entryDx=0;entryDy=0;align=left;" parent="VDlrK9HROH-bXT8Rcj3w-88" source="VDlrK9HROH-bXT8Rcj3w-89" target="VDlrK9HROH-bXT8Rcj3w-89" edge="1">
          <mxGeometry width="50" height="50" relative="1" as="geometry">
            <mxPoint x="-50" y="120" as="sourcePoint" />
            <mxPoint y="70" as="targetPoint" />
          </mxGeometry>
        </mxCell>
        <mxCell id="VDlrK9HROH-bXT8Rcj3w-91" value="TEXT" style="rounded=0;whiteSpace=wrap;html=1;align=left;" parent="VDlrK9HROH-bXT8Rcj3w-88" vertex="1">
          <mxGeometry x="160" width="120" height="30" as="geometry" />
        </mxCell>
        <mxCell id="VDlrK9HROH-bXT8Rcj3w-92" value="" style="group;align=left;" parent="1" vertex="1" connectable="0">
          <mxGeometry x="80" y="700" width="280" height="30" as="geometry" />
        </mxCell>
        <mxCell id="VDlrK9HROH-bXT8Rcj3w-93" value="description" style="text;html=1;align=left;verticalAlign=middle;whiteSpace=wrap;rounded=0;labelBorderColor=none;" parent="VDlrK9HROH-bXT8Rcj3w-92" vertex="1">
          <mxGeometry width="280" height="30" as="geometry" />
        </mxCell>
        <mxCell id="VDlrK9HROH-bXT8Rcj3w-94" value="" style="endArrow=none;html=1;rounded=0;exitX=0;exitY=1;exitDx=0;exitDy=0;entryX=1;entryY=1;entryDx=0;entryDy=0;align=left;" parent="VDlrK9HROH-bXT8Rcj3w-92" source="VDlrK9HROH-bXT8Rcj3w-93" target="VDlrK9HROH-bXT8Rcj3w-93" edge="1">
          <mxGeometry width="50" height="50" relative="1" as="geometry">
            <mxPoint x="-50" y="120" as="sourcePoint" />
            <mxPoint y="70" as="targetPoint" />
          </mxGeometry>
        </mxCell>
        <mxCell id="VDlrK9HROH-bXT8Rcj3w-95" value="TEXT" style="rounded=0;whiteSpace=wrap;html=1;align=left;" parent="VDlrK9HROH-bXT8Rcj3w-92" vertex="1">
          <mxGeometry x="160" width="120" height="30" as="geometry" />
        </mxCell>
        <mxCell id="VDlrK9HROH-bXT8Rcj3w-96" value="" style="group;align=left;" parent="1" vertex="1" connectable="0">
          <mxGeometry x="80" y="730" width="280" height="30" as="geometry" />
        </mxCell>
        <mxCell id="VDlrK9HROH-bXT8Rcj3w-97" value="habit_id" style="text;html=1;align=left;verticalAlign=middle;whiteSpace=wrap;rounded=0;labelBorderColor=none;" parent="VDlrK9HROH-bXT8Rcj3w-96" vertex="1">
          <mxGeometry width="280" height="30" as="geometry" />
        </mxCell>
        <mxCell id="VDlrK9HROH-bXT8Rcj3w-98" value="" style="endArrow=none;html=1;rounded=0;exitX=0;exitY=1;exitDx=0;exitDy=0;entryX=1;entryY=1;entryDx=0;entryDy=0;align=left;" parent="VDlrK9HROH-bXT8Rcj3w-96" source="VDlrK9HROH-bXT8Rcj3w-97" target="VDlrK9HROH-bXT8Rcj3w-97" edge="1">
          <mxGeometry width="50" height="50" relative="1" as="geometry">
            <mxPoint x="-50" y="120" as="sourcePoint" />
            <mxPoint y="70" as="targetPoint" />
          </mxGeometry>
        </mxCell>
        <mxCell id="VDlrK9HROH-bXT8Rcj3w-99" value="INT" style="rounded=0;whiteSpace=wrap;html=1;align=left;" parent="VDlrK9HROH-bXT8Rcj3w-96" vertex="1">
          <mxGeometry x="160" width="120" height="30" as="geometry" />
        </mxCell>
        <mxCell id="VDlrK9HROH-bXT8Rcj3w-100" value="" style="edgeStyle=entityRelationEdgeStyle;fontSize=12;html=1;endArrow=ERoneToMany;startArrow=ERmandOne;rounded=0;exitX=0;exitY=0.75;exitDx=0;exitDy=0;entryX=1;entryY=0.5;entryDx=0;entryDy=0;" parent="1" source="DcZ_CSGGjANzheqNLnKH-4" target="VDlrK9HROH-bXT8Rcj3w-97" edge="1">
          <mxGeometry width="100" height="100" relative="1" as="geometry">
            <mxPoint x="490" y="505" as="sourcePoint" />
            <mxPoint x="370" y="505" as="targetPoint" />
          </mxGeometry>
        </mxCell>
        <mxCell id="VDlrK9HROH-bXT8Rcj3w-101" value="&lt;b&gt;&lt;font style=&quot;font-size: 22px;&quot;&gt;HABIT_JOB_CATE&lt;/font&gt;&lt;/b&gt;" style="rounded=0;whiteSpace=wrap;html=1;align=center;" parent="1" vertex="1">
          <mxGeometry x="-320" y="600" width="280" height="40" as="geometry" />
        </mxCell>
        <mxCell id="VDlrK9HROH-bXT8Rcj3w-102" value="" style="rounded=0;whiteSpace=wrap;html=1;align=left;" parent="1" vertex="1">
          <mxGeometry x="-320" y="640" width="280" height="70" as="geometry" />
        </mxCell>
        <mxCell id="VDlrK9HROH-bXT8Rcj3w-103" value="" style="group;align=left;" parent="1" vertex="1" connectable="0">
          <mxGeometry x="-320" y="640" width="280" height="30" as="geometry" />
        </mxCell>
        <mxCell id="VDlrK9HROH-bXT8Rcj3w-104" value="habit_id" style="text;html=1;align=left;verticalAlign=middle;whiteSpace=wrap;rounded=0;labelBorderColor=none;" parent="VDlrK9HROH-bXT8Rcj3w-103" vertex="1">
          <mxGeometry width="280" height="30" as="geometry" />
        </mxCell>
        <mxCell id="VDlrK9HROH-bXT8Rcj3w-105" value="" style="endArrow=none;html=1;rounded=0;exitX=0;exitY=1;exitDx=0;exitDy=0;entryX=1;entryY=1;entryDx=0;entryDy=0;align=left;" parent="VDlrK9HROH-bXT8Rcj3w-103" source="VDlrK9HROH-bXT8Rcj3w-104" target="VDlrK9HROH-bXT8Rcj3w-104" edge="1">
          <mxGeometry width="50" height="50" relative="1" as="geometry">
            <mxPoint x="-50" y="120" as="sourcePoint" />
            <mxPoint y="70" as="targetPoint" />
          </mxGeometry>
        </mxCell>
        <mxCell id="VDlrK9HROH-bXT8Rcj3w-106" value="INT" style="rounded=0;whiteSpace=wrap;html=1;align=left;" parent="VDlrK9HROH-bXT8Rcj3w-103" vertex="1">
          <mxGeometry x="160" width="120" height="30" as="geometry" />
        </mxCell>
        <mxCell id="VDlrK9HROH-bXT8Rcj3w-107" value="" style="group;align=left;" parent="1" vertex="1" connectable="0">
          <mxGeometry x="-320" y="670" width="280" height="30" as="geometry" />
        </mxCell>
        <mxCell id="VDlrK9HROH-bXT8Rcj3w-108" value="cate_id" style="text;html=1;align=left;verticalAlign=middle;whiteSpace=wrap;rounded=0;labelBorderColor=none;" parent="VDlrK9HROH-bXT8Rcj3w-107" vertex="1">
          <mxGeometry width="280" height="30" as="geometry" />
        </mxCell>
        <mxCell id="VDlrK9HROH-bXT8Rcj3w-109" value="" style="endArrow=none;html=1;rounded=0;exitX=0;exitY=1;exitDx=0;exitDy=0;entryX=1;entryY=1;entryDx=0;entryDy=0;align=left;" parent="VDlrK9HROH-bXT8Rcj3w-107" source="VDlrK9HROH-bXT8Rcj3w-108" target="VDlrK9HROH-bXT8Rcj3w-108" edge="1">
          <mxGeometry width="50" height="50" relative="1" as="geometry">
            <mxPoint x="-50" y="120" as="sourcePoint" />
            <mxPoint y="70" as="targetPoint" />
          </mxGeometry>
        </mxCell>
        <mxCell id="VDlrK9HROH-bXT8Rcj3w-110" value="ENUM" style="rounded=0;whiteSpace=wrap;html=1;align=left;" parent="VDlrK9HROH-bXT8Rcj3w-107" vertex="1">
          <mxGeometry x="160" width="120" height="30" as="geometry" />
        </mxCell>
        <mxCell id="VDlrK9HROH-bXT8Rcj3w-111" value="" style="edgeStyle=entityRelationEdgeStyle;fontSize=12;html=1;endArrow=ERoneToMany;startArrow=ERmandOne;rounded=0;exitX=0;exitY=0.5;exitDx=0;exitDy=0;entryX=1;entryY=0.5;entryDx=0;entryDy=0;" parent="1" source="VDlrK9HROH-bXT8Rcj3w-85" target="VDlrK9HROH-bXT8Rcj3w-104" edge="1">
          <mxGeometry width="100" height="100" relative="1" as="geometry">
            <mxPoint x="490" y="512" as="sourcePoint" />
            <mxPoint x="370" y="755" as="targetPoint" />
          </mxGeometry>
        </mxCell>
        <mxCell id="YZj0zw7wTLtwygs7arW9-24" value="phone" style="text;html=1;align=left;verticalAlign=middle;whiteSpace=wrap;rounded=0;labelBorderColor=none;" parent="1" vertex="1">
          <mxGeometry x="480" y="290" width="280" height="30" as="geometry" />
        </mxCell>
        <mxCell id="YZj0zw7wTLtwygs7arW9-25" value="" style="endArrow=none;html=1;rounded=0;exitX=0;exitY=1;exitDx=0;exitDy=0;entryX=1;entryY=1;entryDx=0;entryDy=0;align=left;" parent="1" source="YZj0zw7wTLtwygs7arW9-24" target="YZj0zw7wTLtwygs7arW9-24" edge="1">
          <mxGeometry width="50" height="50" relative="1" as="geometry">
            <mxPoint x="430" y="440" as="sourcePoint" />
            <mxPoint x="480" y="390" as="targetPoint" />
          </mxGeometry>
        </mxCell>
        <mxCell id="z4aJezzARvbhuygwyfFC-3" value="" style="group;align=left;" parent="1" vertex="1" connectable="0">
          <mxGeometry x="480" y="320" width="280" height="30" as="geometry" />
        </mxCell>
        <mxCell id="z4aJezzARvbhuygwyfFC-4" value="email" style="text;html=1;align=left;verticalAlign=middle;whiteSpace=wrap;rounded=0;labelBorderColor=none;" parent="z4aJezzARvbhuygwyfFC-3" vertex="1">
          <mxGeometry width="280" height="30" as="geometry" />
        </mxCell>
        <mxCell id="z4aJezzARvbhuygwyfFC-5" value="" style="endArrow=none;html=1;rounded=0;exitX=0;exitY=1;exitDx=0;exitDy=0;entryX=1;entryY=1;entryDx=0;entryDy=0;align=left;" parent="z4aJezzARvbhuygwyfFC-3" source="z4aJezzARvbhuygwyfFC-4" target="z4aJezzARvbhuygwyfFC-4" edge="1">
          <mxGeometry width="50" height="50" relative="1" as="geometry">
            <mxPoint x="-50" y="120" as="sourcePoint" />
            <mxPoint y="70" as="targetPoint" />
          </mxGeometry>
        </mxCell>
        <mxCell id="z4aJezzARvbhuygwyfFC-6" value="VARCHAR(255)" style="rounded=0;whiteSpace=wrap;html=1;align=left;" parent="z4aJezzARvbhuygwyfFC-3" vertex="1">
          <mxGeometry x="160" width="120" height="30" as="geometry" />
        </mxCell>
      </root>
    </mxGraphModel>
  </diagram>
</mxfile>
